<?xml version="1.0"?>
<svg width="1077.87" height="813.02" xmlns="http://www.w3.org/2000/svg" xmlns:svg="http://www.w3.org/2000/svg" xmlns:xlink="http://www.w3.org/1999/xlink" data-name="Layer 1">
 <defs>
  <linearGradient id="a" x1="0.5" x2="0.5" y1="1" y2="0">
   <stop offset="0" stop-color="gray" stop-opacity="0.25"/>
   <stop offset="0.54" stop-color="gray" stop-opacity="0.12"/>
   <stop offset="1" stop-color="gray" stop-opacity="0.1"/>
  </linearGradient>
  <linearGradient id="b" x1="649.11" x2="649.11" xlink:href="#a" y1="832.85" y2="382.11"/>
 </defs>
 <g class="layer">
  <title>Layer 1</title>
  <path d="m658.83,112.35c-46.25,39.26 -106.24,36.72 -158.81,16.29s-100.86,-56.79 -152.08,-82.64c-42.94,-21.67 -88,-35.9 -133.61,-42.23c-65.28,-9.06 -138.18,2 -183.66,65.44c-50.65,70.68 -46.76,198.16 8,263c27.87,33 64.36,49.2 96.18,75s61.29,68.56 58.58,118.3c-2.51,46 -31.68,81.37 -61.87,103.54c-23.33,17.13 -52.06,35.84 -54.87,71.33c-2.72,34.33 21.44,61.24 44.51,76.54c75.26,49.91 168,49.43 243,-1.26c26.74,-18.09 51.3,-42.15 79.35,-56.23c73.65,-37 154.81,0.24 232.8,13.87c66,11.53 133.69,5.55 198,-17.48c38.62,-13.83 77.39,-35 104.52,-74.36c19.57,-28.4 31.76,-64.35 43.2,-99.85q18.3,-56.77 35.19,-114.36c6.75,-23.05 13.4,-46.54 15.15,-71.19c3.16,-44.68 -10.16,-88.85 -28.3,-126.55c-43.07,-89.53 -115.61,-152.48 -194.17,-168.47s-161.67,15.24 -222.6,83.58" fill="#00c7fa" id="svg_1" opacity="0.1" transform="matrix(1 0 0 1 0 0)"/>
  <ellipse cx="489.56" cy="532.53" fill="#00c7fa" id="svg_2" opacity="0.1" rx="226.98" ry="10.36"/>
  <path d="m481.94,489.75c-113.47,0 -205.78,-92.31 -205.78,-205.78s92.28,-205.78 205.78,-205.78s205.75,92.32 205.75,205.78s-92.32,205.78 -205.75,205.78zm0,-409.56c-112.37,0 -203.78,91.42 -203.78,203.78s91.38,203.78 203.78,203.78s203.78,-91.42 203.78,-203.78s-91.45,-203.78 -203.78,-203.78z" fill="#fff" id="svg_3"/>
  <path d="m481.94,443.57c-88,0 -159.61,-71.6 -159.61,-159.6s71.61,-159.6 159.61,-159.6s159.6,71.6 159.6,159.6s-71.6,159.6 -159.6,159.6zm0,-317.2c-86.91,0 -157.61,70.7 -157.61,157.6s70.7,157.6 157.61,157.6s157.6,-70.7 157.6,-157.6s-70.73,-157.6 -157.6,-157.6z" fill="#fff" id="svg_4"/>
  <path d="m481.94,393.97a110,110 0 1 1 110,-110a110.13,110.13 0 0 1 -110,110zm0,-218a108,108 0 1 0 108,108a108.13,108.13 0 0 0 -108,-108z" fill="#fff" id="svg_5"/>
  <ellipse cx="979.99" cy="403.16" fill="#00c7fa" id="svg_6" opacity="0.1" rx="14.27" ry="4.72"/>
  <ellipse cx="178.55" cy="651.82" fill="#00c7fa" id="svg_7" opacity="0.1" rx="84.04" ry="13.79"/>
  <g id="svg_8" opacity="0.1">
   <path d="m324.87,269.72l-256.39,0a13.44,13.44 0 0 0 -13.4,13.4l0,162a13.44,13.44 0 0 0 13.4,13.4l201.13,0s5.21,27.66 -11.91,30.64c0,0 38.34,2.75 31.64,-30.64l35.53,0a13.44,13.44 0 0 0 13.4,-13.4l0,-162a13.44,13.44 0 0 0 -13.4,-13.4z" id="svg_9"/>
   <g id="svg_10" opacity="0.2">
    <rect height="12.66" id="svg_11" rx="5.67" ry="5.67" width="207.7" x="92.82" y="312.72"/>
    <rect height="12.66" id="svg_12" rx="5.67" ry="5.67" width="207.7" x="92.82" y="369.3"/>
    <rect height="12.66" id="svg_13" rx="5.67" ry="5.67" width="174.18" x="92.82" y="397.58"/>
    <rect height="12.66" id="svg_14" rx="5.67" ry="5.67" width="90.06" x="92.82" y="341.01"/>
   </g>
  </g>
  <path d="m329.11,270.6l-256.4,0a13.44,13.44 0 0 0 -13.4,13.4l0,162a13.44,13.44 0 0 0 13.4,13.4l201.13,0s5.22,27.66 -11.91,30.63c0,0 38.34,2.75 31.64,-30.63l35.54,0a13.43,13.43 0 0 0 13.39,-13.4l0,-162a13.43,13.43 0 0 0 -13.39,-13.4z" fill="#fff" id="svg_15"/>
  <g fill="#00c7fa" id="svg_16" opacity="0.2" transform="matrix(1 0 0 1 0 0)">
   <rect height="12.66" id="svg_17" rx="5.67" ry="5.67" width="207.7" x="96.06" y="311.6"/>
   <rect height="12.66" id="svg_18" rx="5.67" ry="5.67" width="207.7" x="96.06" y="368.18"/>
   <rect height="12.66" id="svg_19" rx="5.67" ry="5.67" width="174.18" x="96.06" y="396.47"/>
   <rect height="12.66" id="svg_20" rx="5.67" ry="5.67" width="90.06" x="96.06" y="339.89"/>
  </g>
  <path d="m173.44,646.19l-7.92,1.64l-15.1,1s-17.8,1.35 -13.76,-6.58a12.54,12.54 0 0 0 0.73,-1.68c0.15,-0.38 0.29,-0.78 0.41,-1.18a27.39,27.39 0 0 1 9,1.82c5.07,2 8.89,-3.15 8.89,-3.15l2.46,-4.7l0.36,-0.68c0.6,0.86 1,1.35 1,1.35a8,8 0 0 0 2.51,2.9l-0.42,0.88l-2.39,5s3.06,0.31 7.25,1a3.24,3.24 0 0 0 3.94,-2.16l0.29,0.06c1.2,0.27 2,0.37 2,0.37l0.75,4.11z" id="svg_22" opacity="0.1"/>
  <path d="m212.18,635.56l-0.81,4.7l-10.56,-2.7l-14.15,-4.59l-7,-4s0.08,-0.38 0.22,-1.11l0,-0.12c0.06,-0.31 0.12,-0.68 0.21,-1.1l1,-0.1l0.08,0a13.32,13.32 0 0 1 5.93,0.8c2.3,0.87 5.32,1.86 5.94,1.44a7.56,7.56 0 0 1 3.39,-0.6l1.47,-3.22l0.21,-0.49a10.68,10.68 0 0 0 2,3.34a11.29,11.29 0 0 0 1.13,1.16l-0.06,1.14l-0.08,1.61a20.58,20.58 0 0 0 5.08,2.35a2.94,2.94 0 0 0 1.42,0l1,0.4a30.07,30.07 0 0 0 3.17,1a3.29,3.29 0 0 0 0.41,0.09z" id="svg_25" opacity="0.1"/>
  <path d="m521.27,763.98s-38.05,-2.3 -33.56,24.36c0,0 -0.89,4.71 3.38,6.85c0,0 0.07,-2 3.9,-1.3a17.51,17.51 0 0 0 4.13,0.2a8.63,8.63 0 0 0 5.06,-2.09s10.69,-4.42 14.85,-21.9c0,0 3.08,-3.81 3,-4.79l-6.42,2.74s2.19,4.63 0.46,8.48c0,0 -0.2,-8.31 -1.44,-8.11c-0.25,0 -3.33,1.6 -3.33,1.6s3.77,8.07 0.92,13.93c0,0 1.08,-9.94 -2.1,-13.34l-4.52,2.63s4.41,8.34 1.42,15.14c0,0 0.77,-10.43 -2.37,-14.49l-4.1,3.19s4.15,8.21 1.62,13.85c0,0 -0.33,-12.14 -2.51,-13c0,0 -3.58,3.15 -4.12,4.45c0,0 2.83,6 1.07,9.11c0,0 -1.08,-8.09 -2,-8.12c0,0 -3.57,5.36 -3.94,9a19.48,19.48 0 0 1 3.07,-9.55a10.71,10.71 0 0 0 -5.46,2.83s0.55,-3.79 6.34,-4.12c0,0 3,-4.06 3.74,-4.31c0,0 -5.76,-0.48 -9.25,1.07c0,0 3.07,-3.58 10.31,-2l4,-3.3s-7.58,-1 -10.8,0.11c0,0 3.7,-3.17 11.89,-0.86l4.4,-2.64s-6.46,-1.39 -10.31,-0.89c0,0 4.06,-2.19 11.6,0.19l3.15,-1.42s-4.74,-0.93 -6.12,-1.07s-1.46,-0.53 -1.46,-0.53a16.36,16.36 0 0 1 8.89,1s6.72,-2.48 6.61,-2.9z" fill="#00c7fa" id="svg_42"/>
  <ellipse cx="495.06" cy="797.52" fill="#00c7fa" id="svg_43" opacity="0.1" rx="26.93" ry="4.55"/>
  <path d="m819.38,731.38s-38,-2.29 -33.56,24.37c0,0 -0.89,4.71 3.38,6.85c0,0 0.07,-2 3.9,-1.31a17.62,17.62 0 0 0 4.14,0.2a8.54,8.54 0 0 0 5.05,-2.09s10.7,-4.41 14.85,-21.89c0,0 3.08,-3.82 3,-4.8l-6.46,2.8s2.19,4.63 0.47,8.48c0,0 -0.21,-8.32 -1.44,-8.12c-0.25,0 -3.34,1.6 -3.34,1.6s3.77,8.07 0.93,13.94c0,0 1.08,-9.94 -2.11,-13.35l-4.52,2.64s4.41,8.33 1.42,15.13c0,0 0.77,-10.43 -2.37,-14.49l-4.09,3.17s4.14,8.22 1.61,13.86c0,0 -0.33,-12.15 -2.5,-13.06c0,0 -3.58,3.16 -4.13,4.46c0,0 2.84,6 1.08,9.1c0,0 -1.08,-8.08 -2,-8.12c0,0 -3.57,5.36 -3.94,9a19.45,19.45 0 0 1 3.08,-9.55a10.76,10.76 0 0 0 -5.47,2.83s0.56,-3.78 6.35,-4.12c0,0 3,-4.06 3.74,-4.31c0,0 -5.76,-0.48 -9.26,1.07c0,0 3.08,-3.58 10.31,-1.95l4,-3.3s-7.59,-1 -10.8,0.11c0,0 3.7,-3.16 11.89,-0.86l4.4,-2.63s-6.47,-1.4 -10.32,-0.89c0,0 4.06,-2.19 11.61,0.18l3.15,-1.41s-4.74,-0.93 -6.13,-1.08s-1.46,-0.53 -1.46,-0.53a16.39,16.39 0 0 1 8.9,1s6.76,-2.51 6.64,-2.93z" fill="#00c7fa" id="svg_44"/>
  <ellipse cx="793.17" cy="764.92" fill="#00c7fa" id="svg_45" opacity="0.1" rx="26.93" ry="4.55"/>
  <ellipse cx="848.09" cy="436.83" fill="#00c7fa" id="svg_46" opacity="0.1" rx="77.55" ry="12.72"/>
  <path d="m999.44,229.49c3.17,-10.63 0,-21.26 0,-21.26l0,-10s3.62,-19.61 -12.5,-32.19l-10.7,-9.43s-6,-5.14 -7.73,-5.47a7.85,7.85 0 0 0 -1,-0.15l-0.32,-0.18a32.21,32.21 0 0 1 -2.34,-4.93a4.57,4.57 0 0 0 3.81,-1.3a5,5 0 0 0 0.9,-1.5c0.62,-1.39 0.72,-3.07 1.25,-4.55a10.62,10.62 0 0 1 2,-3.27c-0.11,0.18 -0.22,0.35 -0.32,0.53c1.51,-1.88 3.49,-3.5 4.9,-5.49a12,12 0 0 0 0.78,-1.22l-0.21,0.25c2,-3.16 2.57,-7 3.14,-10.68a9.64,9.64 0 0 0 0.06,-3.82a12.73,12.73 0 0 0 -1.07,-2.42c-2.32,-4.8 -2.27,-10.82 -6,-14.65c-2.79,-2.87 -7,-3.75 -11,-4.24s-8.17,-0.77 -11.59,-2.86a12.55,12.55 0 0 0 -3.14,-1.73a2.59,2.59 0 0 0 -3.09,1.15a2,2 0 0 1 -0.41,0.83a1.33,1.33 0 0 1 -1.19,0.07l-5.3,-1.42l0.06,0.27l-0.13,0l0.19,0.84c0.17,0 0.35,0 0.5,0.29l-0.85,1.31a13.13,13.13 0 0 1 -4.79,-1a2.26,2.26 0 0 0 0,0.26l-0.07,0c-0.1,1.5 1.6,2.47 2.12,3.88a2.94,2.94 0 0 1 0,1.9a4.32,4.32 0 0 1 -1,1.52c-1.89,1.86 -4.29,1.49 -6.46,2.67a1.38,1.38 0 0 0 -0.79,0.87a0.67,0.67 0 0 0 -0.07,0.48a1.12,1.12 0 0 0 0.44,0.55a10,10 0 0 0 2.06,1.28l-0.62,0.6a23.74,23.74 0 0 0 8.2,38.71c0.08,0.41 0.14,0.83 0.2,1.28l0,0.12l0.06,0.57l-7.15,3a5.69,5.69 0 0 1 -5.12,-3.29c-1.66,-3.44 -7.53,0 -7.53,0s-17.93,-1.35 -24.56,1.95c0,0 -10.7,-4.49 -12.2,-4.79s-3.77,-1.5 -4.83,-1.2s-2.41,-2 -3.16,-1.8s-1,-1.49 -3.46,-2.09s-3.32,0.15 -6,-2.55s-24.71,-13.32 -24.71,-13.32l-9.94,-8.09l-10.55,-8.38l-0.19,0.35c-0.06,-0.25 -0.13,-0.51 -0.2,-0.78a100,100 0 0 0 -3.91,-12.3c-0.68,-1.62 -1,-3.67 -1.89,-2.59c-0.56,0.65 -1.52,-0.77 -3,-1.73a2.49,2.49 0 0 0 -3.72,1.08c-8.21,12.87 -11.15,13.8 -6.39,18.51c4.23,4.2 7.05,7.91 10.51,9l0.41,0.13a0.58,0.58 0 0 1 -0.23,0l20,23.95s14.46,12.58 24.41,16.62s9.19,5.24 9.19,5.24s30.13,15.27 34.8,15s3.77,31.29 1.81,36.38s-5.12,41.92 -5.12,41.92s-3,7.78 0.15,13.17c0,0 0.7,10.32 0.07,12.79c-2.75,4.23 -6.66,11.41 -7.3,18.8c0,0.39 -0.08,0.76 -0.12,1.14a2.59,2.59 0 0 1 -0.71,0.58s0.26,-0.06 0.67,-0.2a38,38 0 0 1 -2,9a36.67,36.67 0 0 0 -2.46,13l0,23.79l-1.99,14.75s-2.41,11.17 0,13.77a6.33,6.33 0 0 1 1.32,4.59a8.5,8.5 0 0 0 1.54,5.35a4.06,4.06 0 0 1 1,3.44c-0.8,2.59 1.18,30.13 1.18,30.13s-0.58,7.59 -1.38,8s1.34,8.72 1.34,8.72s-8.14,6.79 -6.07,10.39l2.08,3.19l-0.55,0.54l-0.34,0.34a3.17,3.17 0 0 0 -2.07,-0.39a77.61,77.61 0 0 1 -8.19,7.29c-3.67,2.65 -13.66,6.49 -13.66,6.49l-7.88,0.64l-0.15,0s-3.77,-0.35 -1.66,5.49s21,4 21,4l11,-1.74s19.68,0.09 25.31,-1.15c2.36,-0.53 2.92,-1.78 2.77,-3.06l-0.06,-0.06a7.86,7.86 0 0 0 -1.61,-3.31a1.56,1.56 0 0 0 -0.14,-0.17l0.36,-4c8.35,-4.81 -2.36,-14.28 -2.36,-14.28s3.66,-8 5.55,-10.57s1.88,-40.72 1.88,-40.72s1,-13.78 -1.61,-17a5.75,5.75 0 0 1 2.81,-5.19c1.86,-1.27 7.48,-18.76 11.89,-33.28l2.78,17.11s-0.6,8.18 1.21,10.58a4.07,4.07 0 0 1 0.74,3.18a14.15,14.15 0 0 0 0.41,6.93a4.48,4.48 0 0 0 1.45,2.46c1.61,0.8 1.71,3.65 2.31,4.25s4.32,-0.85 4.52,1.34a48.94,48.94 0 0 1 0,5.79l1.21,35.53s-2,3 -2.41,10.78c-0.17,3.36 -0.8,5.27 -1.45,6.36a3.25,3.25 0 0 0 0.3,3.82l0.35,0.4l-1.49,1.15a3.25,3.25 0 0 0 -0.92,4a3.21,3.21 0 0 0 -0.93,3.45a4,4 0 0 0 0.26,0.56a5.63,5.63 0 0 0 -3,1.48a24.6,24.6 0 0 1 -5.3,5.34a99.92,99.92 0 0 0 -8.46,7.24a12.14,12.14 0 0 1 -4.94,4a8,8 0 0 1 -1.49,0.44c-4,0.81 -2.71,4.95 0.5,5.6s13.86,3.94 22.15,2c0,0 2.46,1 6.07,-0.84s11.83,-4 11.83,-4s4.52,0 5.12,-1.8a6.89,6.89 0 0 0 0.26,-1.75l0.13,-0.12l-0.12,-0.11a23.56,23.56 0 0 0 -0.31,-4c-0.11,-0.68 -0.24,-1.3 -0.36,-1.79c-0.39,-1.5 -1.1,-3.43 -1.41,-4.25a1.53,1.53 0 0 0 0.14,-0.21c1.72,-2.91 -1.14,-10 -1.14,-10a19.11,19.11 0 0 1 3.41,-4c1.61,-1.19 5.83,-32.33 5.83,-32.33s-0.2,-8 2,-11.58s-3,-25.35 -3,-25.35s-2.21,-5 -1.4,-6.79s-0.81,-8.38 -0.81,-8.38l0,-7.86a8.64,8.64 0 0 0 -0.46,-2.76c-0.62,-1.85 -1.54,-5.4 -0.54,-8c1.41,-3.59 4.62,-25.75 4.62,-25.75s-2.51,-9.77 1.16,-17.55a16.79,16.79 0 0 1 1,-1.81c2.72,-4.28 1.91,-11.88 0.57,-18c-0.21,-0.95 -0.43,-1.86 -0.65,-2.73c-0.1,-0.37 -0.2,-0.72 -0.29,-1.07l0.43,-0.18s0,-0.59 0.13,-1.58a11,11 0 0 0 7.25,-5s9.19,-10.33 17.33,-14.67s8.74,-10.63 8.74,-10.63c-1.21,-2.1 2.15,-10.63 2.15,-10.63l-0.34,-9.23zm-32,-78.38zm5.53,92.15l-8.7,10.09a0.21,0.21 0 0 1 0,-0.06c-2.26,-3.14 2.11,-10.18 2.11,-10.18l7.19,-16.11c-0.06,2.08 -0.31,3.9 -0.94,4.76c-2,2.7 3.61,7.19 3.61,7.19c-3.01,-0.03 -3.31,4.31 -3.31,4.31l0.04,0z" fill="url(#a)" id="svg_47" transform="translate(-61.06 -43.49)"/>
  <path d="m758.68,67.51l-4.74,9.21a18.35,18.35 0 0 1 -4.42,-0.92a16.77,16.77 0 0 1 -10.38,-9c-4.24,-9.38 2.78,-15.44 6.05,-17.22s6.3,-3.83 8.75,2a101.43,101.43 0 0 1 3.86,12.22c0.54,2.22 0.88,3.71 0.88,3.71zm150.92,48l-7.58,11.31s-35.86,17.1 -29,-3c3,-8.85 3.37,-15.33 2.83,-19.81l0,-0.12c-0.7,-5.6 -2.81,-8 -2.81,-8s34.95,-17.88 29.75,-5.65a17,17 0 0 0 -1.24,8.05a27.42,27.42 0 0 0 3.77,11.17a37,37 0 0 0 4.28,6.05z" fill="#cc818c" id="svg_48"/>
  <path d="m898.74,339.3s5.16,21.62 3,25.19s-2,11.5 -2,11.5s-4.17,30.95 -5.76,32.14a19,19 0 0 0 -3.37,4s2.83,7 1.13,9.9a2.35,2.35 0 0 1 -1.13,1c-2.66,1.12 -12.48,-3.85 -18.07,-6.9a3.08,3.08 0 0 1 -1.48,-1.77a3.15,3.15 0 0 1 0.91,-3.42a3.26,3.26 0 0 1 0.91,-4l1.47,-1.14l-0.34,-0.4a3.25,3.25 0 0 1 -0.3,-3.8c0.64,-1.08 1.26,-3 1.43,-6.31c0.4,-7.74 2.38,-10.71 2.38,-10.71l-1.19,-35.31a50.69,50.69 0 0 0 0,-5.75c-0.2,-2.18 -3.87,-0.74 -4.46,-1.34s-0.7,-3.42 -2.28,-4.22a4.44,4.44 0 0 1 -1.44,-2.44a14.22,14.22 0 0 1 -0.41,-6.89a4.06,4.06 0 0 0 -0.73,-3.16c-1.79,-2.38 -1.19,-10.51 -1.19,-10.51l-2.74,-17c-4.36,14.43 -9.91,31.81 -11.74,33.07a5.72,5.72 0 0 0 -2.78,5.16c2.58,3.17 1.59,16.86 1.59,16.86s0,37.88 -1.86,40.46s-5.48,10.51 -5.48,10.51s10.63,9.46 2.27,14.23l-0.09,0.05c-8.53,4.76 -26.18,-8.52 -26.18,-8.52l1.84,-1.84l0.54,-0.54l-2,-3.18c-2.05,-3.57 6,-10.31 6,-10.31s-2.14,-8.33 -1.35,-8.73s1.35,-7.94 1.35,-7.94s-1.95,-27.37 -1.16,-29.94a4,4 0 0 0 -0.94,-3.42a8.54,8.54 0 0 1 -1.52,-5.31a6.32,6.32 0 0 0 -1.3,-4.56c-2.38,-2.58 0,-13.69 0,-13.69l2,-14.68l0,-23.38a37,37 0 0 1 2.4,-13.12a39.6,39.6 0 0 0 2.16,-10.56c0.65,-7.52 4.69,-14.83 7.41,-19c1.44,-2.2 2.51,-3.52 2.51,-3.52l63.47,-2.49s1,2.83 2,6.76c0.22,0.86 0.44,1.76 0.64,2.71c1.33,6.1 2.13,13.65 -0.56,17.91a14.09,14.09 0 0 0 -1,1.79c-3.63,7.73 -1.15,17.44 -1.15,17.44s-3.17,22 -4.56,25.59c-1,2.53 -0.08,6.06 0.54,7.9a8.79,8.79 0 0 1 0.45,2.74l0,7.81s1.59,6.54 0.8,8.33s1.36,6.75 1.36,6.75z" fill="#444053" id="svg_49"/>
  <path d="m901.66,261.51a16.43,16.43 0 0 0 -1,1.79l-3.57,-0.2c0.34,-1.84 -2.09,-19.09 -2.09,-19.09l7.2,-0.41c1.34,6.14 2.15,13.7 -0.54,17.91z" id="svg_50" opacity="0.1"/>
  <path d="m902.25,260.96a14.09,14.09 0 0 0 -1,1.79l-3.58,-0.2c0.35,-1.84 -2.08,-19.1 -2.08,-19.1l7.19,-0.4c1.36,6.1 2.16,13.65 -0.53,17.91z" fill="#444053" id="svg_51"/>
  <path d="m902.25,260.96a14.09,14.09 0 0 0 -1,1.79l-3.58,-0.2c0.35,-1.84 -2.08,-19.1 -2.08,-19.1l7.19,-0.4c1.36,6.1 2.16,13.65 -0.53,17.91z" id="svg_52" opacity="0.05"/>
  <path d="m891.74,422a2.35,2.35 0 0 1 -1.13,1c-2.66,1.12 -12.48,-3.85 -18.07,-6.9a3.08,3.08 0 0 1 -1.48,-1.77c3.18,-0.58 5.27,3 5.27,3a4.69,4.69 0 0 1 6.54,1.59c2.73,4 8.58,2.32 8.58,2.32s0.12,0.27 0.29,0.76z" id="svg_53" opacity="0.1"/>
  <path d="m893.39,434.16c-0.6,1.78 -5.06,1.78 -5.06,1.78s-8,2.29 -11.56,4.07s-6,0.84 -6,0.84c-8.19,1.89 -18.7,-1.38 -21.87,-2s-4.42,-4.76 -0.5,-5.55a7.84,7.84 0 0 0 1.47,-0.45a11.94,11.94 0 0 0 4.88,-4a101.18,101.18 0 0 1 8.35,-7.2a24.16,24.16 0 0 0 5.24,-5.3c4.66,-4.12 8,1.54 8,1.54a4.69,4.69 0 0 1 6.54,1.59c2.73,4 8.58,2.32 8.58,2.32s1,2.68 1.54,4.61c0.12,0.49 0.25,1.11 0.36,1.79a15.65,15.65 0 0 1 0.03,5.96z" fill="#ff748f" id="svg_54"/>
  <circle cx="879.75" cy="421.07" fill="#575988" id="svg_55" r="0.55"/>
  <circle cx="875.09" cy="425.43" fill="#575988" id="svg_56" r="0.55"/>
  <circle cx="870.35" cy="429.35" fill="#575988" id="svg_57" r="0.55"/>
  <circle cx="872.8" cy="427.6" fill="#575988" id="svg_58" r="0.55"/>
  <circle cx="877.52" cy="423.11" fill="#575988" id="svg_59" r="0.55"/>
  <path d="m893.39,434.16c-0.6,1.78 -5.06,1.78 -5.06,1.78s-8,2.29 -11.56,4.07s-6,0.84 -6,0.84c-8.19,1.89 -18.7,-1.38 -21.87,-2s-4.42,-4.76 -0.5,-5.55a7.84,7.84 0 0 0 1.47,-0.45a38,38 0 0 0 10.73,2c8.08,0.34 14.48,0 14.48,0l8.18,-2.63a13.69,13.69 0 0 1 5.06,-1.84a13,13 0 0 0 5,-2.18a15.65,15.65 0 0 1 0.07,5.96z" fill="#dce6f2" id="svg_60"/>
  <path d="m873.03,439.29a6.75,6.75 0 0 1 -1.36,-0.14l0.12,-0.58a8.59,8.59 0 0 0 4.9,-0.68c0.73,-0.29 1.46,-0.63 2.17,-1s1.7,-0.8 2.58,-1.13l0.81,-0.28c0.45,-0.15 0.9,-0.3 1.33,-0.49c0.25,-0.1 0.49,-0.22 0.73,-0.33a8.14,8.14 0 0 1 1.84,-0.7a8.55,8.55 0 0 1 1,-0.13a8.51,8.51 0 0 0 0.9,-0.11a7.82,7.82 0 0 0 1.72,-0.64a8.35,8.35 0 0 1 1.85,-0.68l0.44,-0.08a2.11,2.11 0 0 0 1.28,-0.47l0.43,0.41a2.67,2.67 0 0 1 -1.62,0.65l-0.41,0.07a7.82,7.82 0 0 0 -1.72,0.64a8.35,8.35 0 0 1 -1.85,0.68a6.59,6.59 0 0 1 -1,0.12a8.73,8.73 0 0 0 -0.93,0.12a7.56,7.56 0 0 0 -1.7,0.66l-0.75,0.34c-0.46,0.19 -0.92,0.35 -1.38,0.5l-0.79,0.28c-0.86,0.32 -1.71,0.72 -2.54,1.1s-1.45,0.69 -2.2,1a10.58,10.58 0 0 1 -3.85,0.87z" fill="#575988" id="svg_61" opacity="0.5"/>
  <path d="m874.94,340.74s4.12,-6 11.16,-5.9s10.06,-0.79 10.06,-0.79s-4.51,2.67 -7.63,3s-13.59,3.69 -13.59,3.69zm2.38,1.39s3.72,-2.58 5.85,-2.68s4,-0.3 4,-0.3a11.3,11.3 0 0 1 -3.27,1.59c-1.82,0.5 -6.58,1.39 -6.58,1.39zm0.79,1.78s5.61,0.45 5.66,1.94m-57.83,-85.56c0.29,0.05 5.29,-5.21 5.64,-7.29a5.1,5.1 0 0 1 2.18,-3.2s3.23,1.29 0.35,5.24s-8.17,5.25 -8.17,5.25zm76.82,-170.11c-1.14,2.7 -2.15,2.9 -1.93,5.52a19.88,19.88 0 0 1 -4.54,3.57c-3.55,2.11 -7.41,6.23 -11.83,6.23a23.45,23.45 0 0 1 -8.64,-1.63c-0.7,-5.6 -2.81,-8 -2.81,-8s34.93,-17.92 29.75,-5.69z" id="svg_62" opacity="0.1"/>
  <path d="m908.11,80.66a23.65,23.65 0 1 1 -23.65,-23.65a23.64,23.64 0 0 1 23.65,23.65z" fill="#cc818c" id="svg_63"/>
  <path d="m909.6,115.51l-7.58,11.31s-35.86,17.1 -29,-3c3,-8.85 3.37,-15.33 2.83,-19.81l0.06,0a18.76,18.76 0 0 1 0.71,4.56c0.11,3.08 0.19,7 7.85,8.28c12.77,2.15 19.63,-5.84 20.83,-7.41a37,37 0 0 0 4.3,6.07zm-150.92,-48l-4.74,9.21a18.35,18.35 0 0 1 -4.42,-0.92l-0.41,-0.49c1.94,0.74 8.48,-11.61 8.48,-11.61l0.21,0.17c0.54,2.15 0.88,3.64 0.88,3.64zm143.49,172.83c-15.31,6.65 -68.29,1 -68.29,1a6.68,6.68 0 0 0 0.27,-1.73c1.44,-2.2 2.51,-3.52 2.51,-3.52l63.47,-2.49s1.03,2.81 2.04,6.74z" id="svg_64" opacity="0.1"/>
  <path d="m875.94,104.56l-7.06,3a5.64,5.64 0 0 1 -5.06,-3.28c-1.63,-3.42 -7.43,0 -7.43,0s-17.71,-1.34 -24.25,1.94c0,0 -10.56,-4.47 -12,-4.76s-3.72,-1.49 -4.76,-1.19s-2.38,-1.94 -3.12,-1.79s-1.05,-1.49 -3.43,-2.08s-3.27,0.15 -5.95,-2.53s-24.39,-13.24 -24.39,-13.24l-9.82,-8l-10.41,-8.33s-6.55,12.34 -8.48,11.6l19.78,23.8s14.28,12.5 24.1,16.51s9.07,5.21 9.07,5.21s29.76,15.17 34.37,14.88s3.72,31.09 1.78,36.15s-5.05,41.65 -5.05,41.65s-3,7.73 0.14,13.09c0,0 0.75,11 0,12.94c0,0 53.31,5.7 68.43,-1c0,0 2.23,-24.69 0,-27.82s2.09,-10.11 2.09,-10.11l9.45,-21.32l23.18,-23.37s3.57,-19.49 -12.34,-32l-10.57,-9.37s-5.91,-5.11 -7.63,-5.43s-1.09,0 -1.09,0s-6.9,10 -21,7.66c-7.66,-1.29 -7.74,-5.19 -7.85,-8.28a18.76,18.76 0 0 0 -0.7,-4.53z" fill="#67647e" id="svg_65"/>
  <path d="m904.99,184.64s-32.73,1.34 -39.27,11.61c0,0 8.48,-4 16.06,-2.83s23.21,-8.78 23.21,-8.78zm-36.15,35.87s15.47,1 18.75,-2.23s3.28,-5.2 3.28,-5.2l-22.03,7.43zm39.27,-67.4s-13.09,15.47 2.83,22.16l-2.83,-22.16zm-77.5,-29.9s4.76,9.71 7.14,10.36l-7.14,-10.36zm-16.06,-4.17s11.9,10.71 14.13,11.75c0,0 -12.35,-11.75 -14.13,-11.75zm47.45,-10.26s-11.46,17.1 -4,27.52c-0.06,0 -4.18,-12.35 4,-27.52z" id="svg_66" opacity="0.1"/>
  <path d="m890.87,238.35l-3.5,3.29l-0.49,0.46l-4.05,3.83c-0.3,0.22 -0.58,0.44 -0.87,0.64c-16.5,11.83 -19.81,-6.14 -19.81,-6.14s-7.29,4.76 -8.33,0.89s17,-9.37 19.63,-9.07a3.48,3.48 0 0 0 0.72,0a11.31,11.31 0 0 0 3.7,-1.31c0.27,-0.14 0.54,-0.28 0.8,-0.43a29.63,29.63 0 0 0 2.67,-1.68l9.53,9.52z" fill="#cc818c" id="svg_67"/>
  <path d="m908.71,80.66a23.65,23.65 0 0 1 -11.56,20.33a13.8,13.8 0 0 1 -0.86,-1.72c-0.85,-2 -1.37,-4.09 -2.22,-6.07a18.94,18.94 0 0 0 -4,-5.79a2.53,2.53 0 0 0 -1,-0.73a2.87,2.87 0 0 0 -2.17,0.6a9.82,9.82 0 0 1 -3.3,1.45a3.51,3.51 0 0 1 -3.31,-1c-0.92,-1.1 -0.79,-2.72 -0.52,-4.13c0.57,-3.08 1.54,-6.1 1.54,-9.23s-1.18,-6.51 -3.9,-8.06c-2.4,-1.36 -5.38,-1 -8.05,-1.75a8.66,8.66 0 0 1 -1.21,-0.42a23.66,23.66 0 0 1 40.59,16.52l-0.03,0z" id="svg_68" opacity="0.1"/>
  <path d="m866.52,60.38c-0.43,0.23 -0.9,0.64 -0.77,1.12a1.1,1.1 0 0 0 0.43,0.55a10.24,10.24 0 0 0 3.74,1.92c2.67,0.72 5.66,0.38 8.06,1.75c2.71,1.55 3.91,4.92 3.9,8.05s-1,6.16 -1.55,9.23c-0.26,1.42 -0.4,3 0.53,4.14a3.53,3.53 0 0 0 3.31,1a9.75,9.75 0 0 0 3.29,-1.44a2.85,2.85 0 0 1 2.17,-0.6a2.64,2.64 0 0 1 1.06,0.72a18.78,18.78 0 0 1 4,5.8c0.86,2 1.38,4.08 2.22,6.07a9.79,9.79 0 0 0 4,4.94a5,5 0 0 0 6,-0.63c1.38,-1.52 1.34,-3.82 2,-5.77c1.18,-3.37 4.48,-5.49 6.54,-8.4c2.32,-3.27 3,-7.4 3.59,-11.36a9.54,9.54 0 0 0 0.06,-3.8a13.76,13.76 0 0 0 -1.05,-2.4c-2.3,-4.76 -2.25,-10.75 -5.92,-14.56c-2.76,-2.85 -6.94,-3.72 -10.88,-4.2s-8.07,-0.78 -11.45,-2.85a12.6,12.6 0 0 0 -3.1,-1.72a2.55,2.55 0 0 0 -3.05,1.14a2,2 0 0 1 -0.41,0.83a1.3,1.3 0 0 1 -1.16,0.07l-5.24,-1.41l0.6,2.64a13.08,13.08 0 0 1 -5.56,-1c-0.1,1.49 1.58,2.46 2.1,3.85a3.56,3.56 0 0 1 -1,3.63c-1.94,1.89 -4.32,1.52 -6.46,2.69z" fill="#585268" id="svg_69"/>
  <path d="m845.29,415.81l-0.21,2.38l-0.09,0.05c-8.53,4.76 -26.18,-8.52 -26.18,-8.52l1.84,-1.84a3.2,3.2 0 0 1 0.8,2.48l3.61,0.2l4.31,4.66s11.67,1.35 14.83,0.59l1.09,0z" id="svg_70" opacity="0.1"/>
  <path d="m843.8,428.76c-5.55,1.23 -25,1.14 -25,1.14l-10.86,1.73s-18.69,1.79 -20.77,-4s1.63,-5.45 1.63,-5.45l0.14,0l7.78,-0.63s9.87,-3.82 13.49,-6.45a77.82,77.82 0 0 0 8.08,-7.24s3.25,-0.63 3.19,3.13l3.61,0.2l4.31,4.65s11.67,1.36 14.83,0.6l1.09,0l-0.5,5.75l0.14,0.18c0.69,0.89 3.8,5.28 -1.16,6.39z" fill="#ff748f" id="svg_71"/>
  <circle cx="823.66" cy="414.31" fill="#575988" id="svg_72" r="0.55"/>
  <circle cx="809.68" cy="420.38" fill="#575988" id="svg_73" r="0.55"/>
  <circle cx="802.48" cy="422.57" fill="#575988" id="svg_74" r="0.55"/>
  <circle cx="813.35" cy="419.22" fill="#575988" id="svg_75" r="0.55"/>
  <circle cx="806.07" cy="421.48" fill="#575988" id="svg_76" r="0.55"/>
  <circle cx="817.06" cy="417.5" fill="#575988" id="svg_77" r="0.55"/>
  <circle cx="820.73" cy="415.91" fill="#575988" id="svg_78" r="0.55"/>
  <path d="m843.8,428.76c-5.55,1.23 -25,1.14 -25,1.14l-10.86,1.73s-18.69,1.79 -20.77,-4s1.63,-5.45 1.63,-5.45l0.14,0c1.19,1.54 3.58,3.3 8.28,3.38l13.44,0.55l13.93,-1s13,-0.4 15.17,-0.84a31.52,31.52 0 0 0 5.2,-1.91c0.69,0.9 3.8,5.29 -1.16,6.4z" fill="#dce6f2" id="svg_79"/>
  <path d="m808.94,430.32a8.77,8.77 0 0 1 -2.2,-0.27l0.2,-0.54a10.79,10.79 0 0 0 5.54,-0.25c0.66,-0.17 1.31,-0.36 2,-0.56a22.68,22.68 0 0 1 9.65,-1.09l0.43,0a91.35,91.35 0 0 0 17.85,-0.8a6.64,6.64 0 0 0 3.82,-1.53l0.43,0.42a7.24,7.24 0 0 1 -4.15,1.7a92.71,92.71 0 0 1 -18,0.8l-0.42,0a29.2,29.2 0 0 0 -5.91,0.17a30.71,30.71 0 0 0 -3.55,0.89c-0.66,0.2 -1.32,0.4 -2,0.57a14.87,14.87 0 0 1 -3.69,0.49z" fill="#575988" id="svg_80" opacity="0.5"/>
  <path d="m890.87,238.35l-3.5,3.29l-8.7,-11.13a29.63,29.63 0 0 0 2.67,-1.68l9.53,9.52z" id="svg_81" opacity="0.1"/>
  <path d="m930.28,147.01l6.84,9.52l0,10s3.13,10.57 0,21.13l0.35,9.22s-3.32,8.48 -2.13,10.56c0,0 -0.6,6.25 -8.63,10.57s-17.11,14.5 -17.11,14.5s-3.42,6.55 -12.64,5.06l-8.78,3.72l-10.11,-12.94l13.68,-7.44s4.76,-6.4 7.59,-6.1l11.6,-13.51s0.3,-4.31 3.27,-4.31c0,0 -5.5,-4.46 -3.57,-7.14s0.3,-14.58 0.3,-14.58l19.34,-28.26z" fill="#67647e" id="svg_82"/>
  <path d="m917.49,190.44s15.62,-0.29 17.55,3.72s-12.79,-5.95 -17.55,-3.72zm-30.55,50.88a4.1,4.1 0 0 1 -0.06,0.78a5.26,5.26 0 0 1 -4.92,4.47l-0.28,0a5.25,5.25 0 0 1 -5.25,-5.25a5.38,5.38 0 0 1 0.29,-1.71c-2.48,-2 -2.61,-5.58 -2.55,-7.37a11.31,11.31 0 0 0 3.7,-1.31a24.6,24.6 0 0 0 2.59,5.29a5,5 0 0 1 1.22,-0.15a5.25,5.25 0 0 1 5.26,5.25z" id="svg_83" opacity="0.1"/>
  <path d="m878.34,229.77s-3.52,0.79 -3.52,1.43s-0.79,6.45 3.07,8.83s3.48,-3.32 3.48,-3.32s-3.33,-5.11 -3.03,-6.94z" fill="#575988" id="svg_84"/>
  <circle cx="882.28" cy="241.32" fill="#e4aab4" id="svg_85" r="5.26"/>
  <circle cx="882.28" cy="241.32" fill="#dce6f2" id="svg_86" r="4.51"/>
  <path d="m861.8,243.35s11.11,9.22 25.39,3.38l0,4.46s-9.52,6.54 -18.15,2.58s-7.24,-10.42 -7.24,-10.42z" id="svg_87" opacity="0.1"/>
  <path d="m861.8,242.16s11.14,9.22 25.39,3.35l0,4.46s-9.52,6.54 -18.15,2.58s-7.24,-10.39 -7.24,-10.39z" id="svg_88" opacity="0.1"/>
  <path d="m861.8,242.16s11.14,9.22 25.39,3.35l0,4.46s-9.52,6.54 -18.15,2.58s-7.24,-10.39 -7.24,-10.39z" fill="#444053" id="svg_89"/>
  <path d="m862.1,242.16s11.11,9.22 25.39,3.38l0,4.46s-9.55,6.51 -18.15,2.58s-7.24,-10.42 -7.24,-10.42z" id="svg_90" opacity="0.05"/>
  <path d="m826.94,407.83s14.88,2.73 17.06,3.32s-0.6,1.64 -0.6,1.64s-13.63,-2.43 -16.46,-4.96zm-0.39,-7.88c0.24,0 10.11,-2.78 12.24,-7.54m2.15,-49.39s4,5.26 6.58,5.11s-4.23,-5.31 -6.58,-5.11zm2.22,8.73s1.68,3.72 4.16,2.53" id="svg_91" opacity="0.1"/>
  <path d="m852.53,270.08l10.55,27.82s1.49,-17.9 -1.66,-23.26a9.29,9.29 0 0 0 -8.89,-4.56z" id="svg_92" opacity="0.05"/>
  <g id="svg_93" opacity="0.1">
   <path d="m878.5,49.64l-0.09,-0.4l-1.7,-0.45l0.19,0.83a12.18,12.18 0 0 0 1.6,0.02zm-4.66,6.69l0.18,-0.16a3.55,3.55 0 0 0 1,-3.62a4.91,4.91 0 0 0 -0.84,-1.35a13,13 0 0 1 -2.45,-0.72c-0.1,1.49 1.58,2.45 2.1,3.85a3,3 0 0 1 0.01,2zm28.1,45.73a9.83,9.83 0 0 1 -4,-4.94c-0.85,-2 -1.36,-4.1 -2.22,-6.07a18.65,18.65 0 0 0 -4,-5.79a2.53,2.53 0 0 0 -1.05,-0.73a2.84,2.84 0 0 0 -2.17,0.6a10,10 0 0 1 -3.3,1.45a3.57,3.57 0 0 1 -3.31,-1c-0.92,-1.1 -0.79,-2.72 -0.52,-4.13c0.58,-3.08 1.54,-6.11 1.55,-9.24s-1.19,-6.5 -3.91,-8c-2.4,-1.37 -5.38,-1 -8,-1.75a10.16,10.16 0 0 1 -3.74,-1.92l-0.21,-0.19a6.39,6.39 0 0 0 -0.65,0.31c-0.43,0.23 -0.89,0.64 -0.77,1.11a1.19,1.19 0 0 0 0.44,0.56a10.3,10.3 0 0 0 3.74,1.91c2.67,0.73 5.65,0.39 8.05,1.76c2.72,1.54 3.91,4.92 3.91,8s-1,6.16 -1.55,9.23c-0.27,1.41 -0.4,3 0.52,4.13a3.52,3.52 0 0 0 3.31,1a10,10 0 0 0 3.3,-1.44a2.89,2.89 0 0 1 2.17,-0.61a2.63,2.63 0 0 1 1,0.73a18.88,18.88 0 0 1 4,5.79c0.86,2 1.37,4.09 2.22,6.07a9.81,9.81 0 0 0 4,5c1.89,1 4.51,1 6,-0.63a4.72,4.72 0 0 0 0.89,-1.49a5.1,5.1 0 0 1 -5.7,0.28zm8.54,-7.55c1.49,-1.88 3.44,-3.48 4.84,-5.46a13.93,13.93 0 0 0 0.77,-1.22c-1.8,2.29 -4.27,4.14 -5.61,6.68z" id="svg_94"/>
  </g>
  <g id="svg_95" opacity="0.1">
   <path d="m822.23,66.41l-236.6,0a12.4,12.4 0 0 0 -12.37,12.36l0,149.49a12.4,12.4 0 0 0 12.37,12.36l185.6,0s4.81,25.53 -11,28.27c0,0 35.38,2.54 29.2,-28.27l32.79,0a12.39,12.39 0 0 0 12.36,-12.36l0,-149.49a12.39,12.39 0 0 0 -12.35,-12.36z" id="svg_96"/>
   <g id="svg_97" opacity="0.2">
    <rect height="11.68" id="svg_98" rx="5.67" ry="5.67" width="191.66" x="608.09" y="106.09"/>
    <rect height="11.68" id="svg_99" rx="5.67" ry="5.67" width="158.15" x="608.09" y="158.29"/>
    <rect height="11.68" id="svg_100" rx="5.67" ry="5.67" width="113.85" x="608.09" y="132.19"/>
   </g>
  </g>
  <path d="m825.32,64.34l-236.6,0a12.41,12.41 0 0 0 -12.37,12.37l0,149.49a12.4,12.4 0 0 0 12.37,12.36l185.6,0s4.81,25.53 -11,28.27c0,0 35.38,2.54 29.2,-28.27l32.79,0a12.39,12.39 0 0 0 12.36,-12.36l0,-149.49a12.4,12.4 0 0 0 -12.35,-12.37z" fill="#fff" id="svg_101"/>
  <g fill="#00c7fa" id="svg_102" opacity="0.2">
   <rect height="11.68" id="svg_103" rx="5.67" ry="5.67" width="191.66" x="611.18" y="104.02"/>
   <rect height="11.68" id="svg_104" rx="5.67" ry="5.67" width="158.15" x="611.18" y="156.23"/>
   <rect height="11.68" id="svg_105" rx="5.67" ry="5.67" width="113.85" x="611.18" y="130.13"/>
  </g>
  <path d="m81.13,552.99s3.56,4.66 -1.65,11.7s-9.51,13 -7.77,17.37c0,0 7.86,-13.07 14.26,-13.25s2.2,-7.96 -4.84,-15.82z" fill="#00c7fa" id="svg_106"/>
  <path d="m81.13,552.99a5.88,5.88 0 0 1 0.72,1.46c6.25,7.34 9.57,14.18 3.57,14.36c-5.59,0.16 -12.29,10.15 -13.9,12.68c0,0.19 0.12,0.38 0.19,0.57c0,0 7.86,-13.07 14.26,-13.25s2.2,-7.96 -4.84,-15.82z" id="svg_107" opacity="0.1"/>
  <path d="m87.75,558.93c0,1.64 -0.18,3 -0.41,3s-0.41,-1.33 -0.41,-3s0.23,-0.87 0.46,-0.87s0.36,-0.77 0.36,0.87z" fill="#ffd037" id="svg_108"/>
  <path d="m90.03,560.89c-1.44,0.79 -2.7,1.26 -2.81,1.06s1,-1 2.41,-1.78s0.88,-0.21 1,0s0.84,-0.06 -0.6,0.72z" fill="#ffd037" id="svg_109"/>
  <path d="m62.29,552.99s-3.56,4.66 1.65,11.7s9.51,13 7.77,17.37c0,0 -7.86,-13.07 -14.26,-13.25s-2.2,-7.96 4.84,-15.82z" fill="#00c7fa" id="svg_110"/>
  <path d="m62.29,552.99a5.88,5.88 0 0 0 -0.72,1.46c-6.25,7.34 -9.57,14.18 -3.57,14.36c5.59,0.16 12.29,10.15 13.9,12.68c-0.05,0.19 -0.12,0.38 -0.19,0.57c0,0 -7.86,-13.07 -14.26,-13.25s-2.2,-7.96 4.84,-15.82z" id="svg_111" opacity="0.1"/>
  <path d="m55.67,558.93c0,1.64 0.18,3 0.41,3s0.41,-1.33 0.41,-3s-0.23,-0.87 -0.46,-0.87s-0.36,-0.77 -0.36,0.87z" fill="#ffd037" id="svg_112"/>
  <path d="m53.39,560.89c1.44,0.79 2.7,1.26 2.81,1.06s-1,-1 -2.41,-1.78s-0.88,-0.21 -1,0s-0.85,-0.06 0.6,0.72z" fill="#ffd037" id="svg_113"/>
  <ellipse cx="71.71" cy="612.01" fill="#00c7fa" id="svg_114" opacity="0.1" rx="37.28" ry="5.72"/>
  <path d="m90.94,575.78l-0.18,1.45l-0.25,2.06l-0.11,0.86l-0.25,2.05l-0.1,0.86l-0.25,2.06l-2.86,23.39c-0.25,2.09 -3.66,3.72 -7.78,3.72l-14.86,0c-4.12,0 -7.52,-1.63 -7.78,-3.72l-2.86,-23.38l-0.25,-2.06l-0.1,-0.86l-0.25,-2.05l-0.11,-0.86l-0.25,-2.06l-0.18,-1.45c-0.14,-1.18 1.71,-2.18 4,-2.18l30.31,0c2.36,-0.01 4.21,0.99 4.11,2.17z" fill="#65617d" id="svg_115"/>
  <path d="m90.71,577.23l-0.25,2.06l-37.51,0l-0.25,-2.06l38.01,0zm-0.35,2.92l-0.25,2.05l-36.8,0l-0.26,-2.05l37.31,0zm-0.36,2.91l-0.25,2.06l-36.09,0l-0.25,-2.06l36.59,0z" fill="#9d9cb5" id="svg_116" transform="matrix(1 0 0 1 0 0)"/>
  <ellipse cx="645.79" cy="789.35" fill="#00c7fa" id="svg_117" opacity="0.1" rx="84.04" ry="13.79"/>
  <g id="svg_118" opacity="0.1">
   <path d="m743.13,365.87l-256.39,0a13.44,13.44 0 0 0 -13.4,13.4l0,162a13.44,13.44 0 0 0 13.4,13.4l201.13,0s5.21,27.66 -11.91,30.63c0,0 38.33,2.75 31.63,-30.63l35.54,0a13.44,13.44 0 0 0 13.4,-13.4l0,-162a13.44,13.44 0 0 0 -13.4,-13.4z" id="svg_119"/>
   <g id="svg_120" opacity="0.2">
    <rect height="12.66" id="svg_121" rx="5.67" ry="5.67" width="207.7" x="511.08" y="465.45"/>
    <rect height="12.66" id="svg_122" rx="5.67" ry="5.67" width="90.06" x="511.08" y="437.16"/>
   </g>
  </g>
  <path d="m740.94,363.64l-256.44,0a13.44,13.44 0 0 0 -13.4,13.4l0,162a13.44,13.44 0 0 0 13.4,13.4l201.13,0s5.21,27.66 -11.91,30.64c0,0 38.34,2.75 31.64,-30.64l35.58,0a13.44,13.44 0 0 0 13.4,-13.4l0,-162a13.44,13.44 0 0 0 -13.4,-13.4z" fill="#fff" id="svg_123"/>
  <g fill="#00c7fa" id="svg_124" opacity="0.2">
   <rect height="12.66" id="svg_125" rx="5.67" ry="5.67" width="207.7" x="508.85" y="463.22"/>
   <rect height="12.66" id="svg_126" rx="5.67" ry="5.67" width="90.06" x="508.85" y="434.93"/>
  </g>
  <path d="m755.21,823.46c-1.21,-5.13 -2,-9.64 -2,-9.64s0.28,-5.59 -2.23,-9.79l0,-11.73a34.65,34.65 0 0 1 2.61,-5.41c1.86,-3.25 0,-15.15 0,-15.15s-6.9,-16.78 -5.22,-27.42s-14.17,-47.27 -14.17,-47.27a46.49,46.49 0 0 1 1.49,-10.46a8.09,8.09 0 0 0 0.2,-2.19a2.35,2.35 0 0 0 0,-0.27l0,0.09c-0.24,-7 -5.79,-20.18 -5.79,-20.18l0.75,-25.07s3.54,-14.79 -2.24,-34.64c-2,-6.92 -3.31,-12.47 -4.13,-16.74c-0.09,-0.49 -0.18,-1 -0.26,-1.4c11.9,-1.81 21,-3.32 21,-3.32s-6.88,-28.87 -11.54,-33.87s-8.38,-21 -8.38,-21s-2.43,-20.39 1.49,-26.34s4.47,-16.23 4.47,-16.23s9,-6.5 10.07,-9.38s3,-9.38 3,-12.81s-1.12,-6.5 -0.75,-8.3s-2.61,-8.66 -1.12,-11.91a8.75,8.75 0 0 0 0.6,-3.13l0,-0.09a44.22,44.22 0 0 0 -0.79,-8.46a24,24 0 0 0 -8.85,-4.73l-0.2,-0.78l-0.5,-2c-0.3,-0.2 -0.59,-0.37 -0.88,-0.53l0,-0.74l-0.09,-2.93l1.41,-6.58c2.75,-11.46 -12.54,-13.17 -12.54,-13.17a8,8 0 0 0 -4.33,-3.79c-3.08,-1.08 -0.51,17.23 0.93,18.4c1.08,0.88 4.42,6.62 6,9.44l0.26,0.47a5.61,5.61 0 0 0 -0.7,0.73l0.58,4l0.09,0.61a16.66,16.66 0 0 0 -2.44,4.16s2.8,3.07 2.24,6.5s0.85,7.7 0.92,7.93c-0.16,-0.19 -2.13,-2.32 -4.09,-1.8s-7.46,2.17 -7.46,2.17s-4.1,0.72 -3.72,1.62s-2.8,4.87 -2.8,4.87l-11,-10.44c-0.1,-0.31 -0.22,-0.62 -0.32,-0.95a26.19,26.19 0 0 1 -1,-4.57a26.15,26.15 0 0 0 3.52,-1.12a7.62,7.62 0 0 0 3,-1.95c1.11,-1.32 1.32,-3.11 1.77,-4.75c0.88,-3.21 2.75,-6.07 4.09,-9.12a29.6,29.6 0 0 0 2.2,-16.37a10.81,10.81 0 0 0 -1.69,-4.79c-1.8,-2.48 -5.06,-3.48 -7.44,-5.46s-3.9,-5 -6.66,-6.47c-2.5,-1.34 -5.55,-1.18 -8.37,-0.72a45.09,45.09 0 0 0 -15.61,5.68c-1.61,0.95 -3.37,2.05 -5.22,1.72c-1.58,-0.29 -2.74,-1.56 -3.77,-2.77c0,-0.05 0,-0.1 0.05,-0.15l-0.12,-0.14a19.37,19.37 0 0 0 -1.63,8.17c0,0.44 0,0.88 0.05,1.32l0,0.84a2,2 0 0 1 -0.08,0.59a4.3,4.3 0 0 1 -1,1.49a7.84,7.84 0 0 0 -0.9,1.22a4,4 0 0 1 0.15,-0.45a6.55,6.55 0 0 0 -1.14,3.48a3.44,3.44 0 0 0 0.82,2.48a12,12 0 0 0 1.8,1.45a21,21 0 0 0 10,21.84c0.13,0.31 0.26,0.63 0.38,0.95c1.41,3.71 2.47,8 2,12c0,0.3 -0.08,0.59 -0.14,0.88s-0.27,0.3 -0.39,0.46s-18.19,0.18 -22.48,-3.7s-10.81,9.47 -10.81,9.47s-6.52,1.26 -7.82,0s-8.95,-0.18 -8.95,-0.18a16.45,16.45 0 0 0 -11.32,-4.14a33.64,33.64 0 0 0 -8.34,-4.64l-0.2,-0.07a9.38,9.38 0 0 0 -4.1,-0.52s-8.95,-7.4 -11.56,-11.36s-15,-18.69 -15.09,-18.76l0,-0.71l-0.14,-2.15a7.11,7.11 0 0 1 -1.11,0.1c-0.07,-0.21 -0.15,-0.46 -0.25,-0.74a41.55,41.55 0 0 0 -2.64,-6.07s0,-2.7 0.79,-3.38s-0.33,-10.6 -0.33,-10.6s-8.06,-18.85 -15.28,-4.78c0,0 -13.65,9.11 -2.19,19.71c0,0 4.57,2.21 5.21,4c0.43,1.14 2,4.32 3,6.43l0.47,0.95l-0.13,0.11l0.17,1.77l0.07,0.68c-2.16,1.23 -3.62,2.44 -3.27,3.36a20.34,20.34 0 0 1 1.31,4.87s15.78,19.8 17.83,28.3c0,0 42.49,25.25 56.47,27.05l-2.42,12.63a101,101 0 0 0 -0.56,10.28c0.18,2.71 -1.68,15 -1.68,15s-2.42,18 -4.47,20.56s-1.63,13.33 -1.63,13.33a91.14,91.14 0 0 1 -2.8,15.33c-2,6.86 -0.56,15.34 -0.56,15.34s-7.08,16.23 9.88,5.23c0,0 8.33,-0.52 17.92,-0.85l0,1c0,1.23 0,2.57 -0.06,4c-0.13,9.3 -0.18,22.11 0.24,31.81c0.75,17.13 6,51.05 6,51.05l0,17a23.4,23.4 0 0 0 -0.49,4.87a31.75,31.75 0 0 0 4.59,17.06l1.31,11.36s3.06,7.49 3.12,12a6.93,6.93 0 0 1 -0.13,1.09a7.76,7.76 0 0 0 -0.15,1.74c-0.17,5.16 2.94,17.5 2.94,17.5s0.18,12.45 2,13.17c1.59,0.62 -2.13,7.18 -3.24,9.06c0,-0.12 0,-0.24 -0.07,-0.36l-0.23,0.38a8.72,8.72 0 0 0 -0.58,3.14a4.53,4.53 0 0 0 2.07,4.38c3.54,2.16 5.44,4 2.43,4.69a32.28,32.28 0 0 0 -3.28,0.69l-0.16,-0.42a2,2 0 0 0 -1.22,2.18a9.08,9.08 0 0 0 1.11,4.22c3,6.68 5,9.2 5,9.2l1.44,-0.16a7.71,7.71 0 0 1 -0.83,1.54a5.94,5.94 0 0 1 -2.11,1.87a6.36,6.36 0 0 1 -2.55,0.87a7.21,7.21 0 0 0 -5.28,2.57c-1.86,2.41 -3,5.68 0.65,8.56l13.33,4.6s22.92,3 21.71,-2.17s-2,-9.65 -2,-9.65a20.32,20.32 0 0 0 -1.86,-9.12a12.23,12.23 0 0 0 -0.81,-1.34l0.81,-0.09s1.68,-11.37 3.91,-13.53c0.52,-0.5 0.64,-0.88 0.51,-1.18c0.23,-0.62 -0.35,-1 -1.1,-1.19l-0.16,0.45a10.91,10.91 0 0 0 -2.23,-0.25s-0.74,-5.95 1.68,-8.11a2.3,2.3 0 0 0 0.47,-1.77a9.94,9.94 0 0 0 -0.25,-2.43l-0.09,0.14c-1.22,-5.4 -5.35,-14 -5.35,-14s-0.19,-5.41 1.31,-7.58s-0.19,-29.4 -0.19,-29.4s0.56,-13.17 -1.12,-19.3s2.05,-13.35 2.05,-13.35l0,-0.4l0.05,-0.09s-0.09,-0.81 -0.22,-2.07l0,0.12c-0.38,-3.48 -1.09,-9.8 -1.61,-12.72c-0.75,-4.15 0.18,-24 0.18,-24l3.36,-8.48l6,14.62l6.34,19.48s3.14,4.11 3.21,8.28a4.08,4.08 0 0 1 0,0.61a11.75,11.75 0 0 0 -0.07,1.31a11.54,11.54 0 0 0 1.93,6.93s1.68,9.2 4.29,11.55s2.61,6.85 2.61,6.85s3.16,13.35 4.66,15.7c1.25,2 1.32,7.41 1.31,9.07l0,0.49s0.44,4.77 0.42,8.78l0,1.43a0.43,0.43 0 0 1 0,-0.11a14.65,14.65 0 0 1 -0.39,3.25s0,0.12 -0.06,0.19l0.06,-0.68a34.37,34.37 0 0 0 -1,8.32c-0.09,4.8 0.64,10.48 3.55,13.81c5,5.78 8.2,5.06 8.2,5.06s-2.42,7.21 -5.41,8.65a1.69,1.69 0 0 0 -0.31,0.21c0,-0.14 -0.06,-0.28 -0.08,-0.42a3.5,3.5 0 0 0 -0.87,2.69c-0.22,3.17 1.78,8.32 3.69,10.69a5.82,5.82 0 0 0 2.52,1.47l-0.47,0.29a10.25,10.25 0 0 1 -1,0.49a4.83,4.83 0 0 1 -1.52,0.39a7.14,7.14 0 0 0 -5.28,2.57c-1.86,2.4 -3,5.67 0.65,8.55l13.33,4.6s22.77,2.94 21.56,-2.21z" fill="url(#b)" id="svg_127" transform="translate(-61.06 -43.49)"/>
  <path d="m606.59,788.51l-12.9,-4.6c-3.56,-2.88 -2.42,-6.15 -0.63,-8.56a6.9,6.9 0 0 1 5.11,-2.57a6,6 0 0 0 2.47,-0.87a5.79,5.79 0 0 0 2,-1.87a9.43,9.43 0 0 0 1.47,-5s14.17,-4.15 18,0a10.66,10.66 0 0 1 1.72,2.51a21,21 0 0 1 1.8,9.12s0.73,4.51 1.89,9.65s-20.93,2.19 -20.93,2.19zm63.14,-6.37l-12.9,-4.6c-3.56,-2.88 -2.43,-6.15 -0.63,-8.55a6.83,6.83 0 0 1 5.11,-2.57a4.53,4.53 0 0 0 1.47,-0.39a7.58,7.58 0 0 0 1,-0.49c3.6,-2 3.51,-6.85 3.51,-6.85s14.16,-4.15 18,0a9.67,9.67 0 0 1 1.35,1.84c2.44,4.2 2.17,9.8 2.17,9.8s0.72,4.51 1.89,9.65s-20.97,2.16 -20.97,2.16z" fill="#2d293d" id="svg_128"/>
  <path d="m622.19,765.05a10.66,10.66 0 0 1 1.72,2.51l-21.23,2.46a9.43,9.43 0 0 0 1.47,-5s14.17,-4.12 18.04,0.03zm64.49,-4.54l0,4c-3.29,5.44 -19.26,4.25 -23.9,1.52a7.58,7.58 0 0 0 1,-0.49c3.6,-2 3.51,-6.85 3.51,-6.85s14.16,-4.15 18,0a9.67,9.67 0 0 1 1.39,1.82z" id="svg_129" opacity="0.1"/>
  <path d="m689.21,743.4a36.78,36.78 0 0 0 -2.53,5.41l0,14.25c-3.6,6 -22.36,4 -24.89,0.72s-5.23,-11.72 -2.34,-13.16s5.23,-8.66 5.23,-8.66s-3.07,0.72 -7.94,-5.05s-3.43,-18.58 -2.52,-21.65s0,-13.35 0,-13.35s0.18,-7.21 -1.27,-9.56s-4.51,-15.69 -4.51,-15.69s0,-4.51 -2.52,-6.86s-4.15,-11.54 -4.15,-11.54a11.85,11.85 0 0 1 -1.83,-7.75c0.55,-4.51 -3.06,-9.38 -3.06,-9.38l-6.13,-19.48l-5.78,-14.61l-3.22,8.47s-0.91,19.84 -0.18,24s1.8,15.15 1.8,15.15s-3.61,7.22 -2,13.35s1.08,19.3 1.08,19.3s1.62,27.24 0.18,29.4s-1.26,7.58 -1.26,7.58s7.39,15.87 5,18s-1.63,8.12 -1.63,8.12s5,0 2.89,2.16s-3.69,13.56 -3.69,13.56l-21.81,2.52s-2,-2.52 -4.89,-9.2s0.54,-6 3.45,-6.67s1.06,-2.53 -2.36,-4.69s-1.45,-7 -1.45,-7s5.23,-8.84 3.43,-9.57s-2,-13.16 -2,-13.16s-3.61,-14.8 -2.71,-18.76s-2.89,-13.53 -2.89,-13.53l-1.26,-11.37a31.27,31.27 0 0 1 -4,-21.46l0,-17.53s-5,-33.91 -5.77,-51.05c-0.46,-11 -0.33,-25.95 -0.18,-35.3c0.09,-5.24 0.18,-8.71 0.18,-8.71l77.95,-8.14a64.36,64.36 0 0 0 1.41,11.57c0.79,4.28 2,9.82 4,16.75c5.59,19.84 2.16,34.63 2.16,34.63l-0.72,25.08s6.86,16.77 5.41,22.55a48,48 0 0 0 -1.44,10.46s15.33,36.62 13.71,47.26s5,27.42 5,27.42s1.85,11.92 0.05,15.17z" fill="#575988" id="svg_130"/>
  <path d="m644.65,649.42l23.73,-3.16s-13.44,13.71 -23.73,3.16z" id="svg_131" opacity="0.05"/>
  <path d="m664.94,623.08s0.81,8.39 -4.33,11.55c0.01,0 9.21,-1.45 4.33,-11.55zm-1.45,-26.69s-19.83,16.32 -27,15s27,-15 27,-15zm-48.24,60.7s-15.06,3.42 -15.51,9.47s15.51,-9.47 15.51,-9.47z" id="svg_132" opacity="0.1"/>
  <path d="m618.56,732.31s-21.28,4 -15.24,6.67s16,4.87 16,4.87s6.82,0.36 -0.76,-11.54z" id="svg_133" opacity="0.05"/>
  <g id="svg_134" opacity="0.05">
   <path d="m599.02,743.28a4.24,4.24 0 0 1 -1.94,-3.09l-0.22,0.38s-2,4.87 1.44,7c0.4,0.25 0.77,0.5 1.11,0.74c0.64,-0.12 1.32,-0.21 2,-0.37c2.88,-0.7 1.04,-2.5 -2.39,-4.66zm27.42,-1.45c0.59,-0.54 0.57,-1.93 0.21,-3.71a10.06,10.06 0 0 0 -1.21,5.23a4.38,4.38 0 0 1 1,-1.52zm-3.27,-89.74a24.26,24.26 0 0 0 -1.44,6.63a26.12,26.12 0 0 1 1.65,-4.56s-0.08,-0.81 -0.21,-2.07zm48.77,-9.47a8.3,8.3 0 0 0 0.2,-2c-0.27,1.34 -0.46,2.59 -0.59,3.69c0.07,-0.53 0.2,-1.1 0.39,-1.69zm-49.29,73.6a11.5,11.5 0 0 0 0.54,-4a13.59,13.59 0 0 0 -1,5.06a4.88,4.88 0 0 1 0.46,-1.06zm4.47,34.01a71,71 0 0 0 -2.48,11.08l-21.81,2.53s-2,-2.53 -4.89,-9.2c-0.25,-0.59 -0.45,-1.11 -0.61,-1.59c-1.31,0.6 -1.82,2 -0.11,5.92c2.89,6.67 4.88,9.2 4.88,9.2l21.84,-2.53s1.62,-11.36 3.78,-13.53c1.05,-1.06 0.37,-1.6 -0.6,-1.88zm-28.82,-32.39s0.18,12.45 2,13.17c0.91,-2.06 1.52,-4 0.71,-4.34c-1.81,-0.72 -2,-13.17 -2,-13.17s-3.6,-14.79 -2.7,-18.76s-2.89,-13.53 -2.89,-13.53l-1.26,-11.36a31.23,31.23 0 0 1 -4,-21.47l0,-17.5s-5,-33.91 -5.77,-51c-0.46,-11 -0.33,-26 -0.18,-35.3c0,-1.69 0.05,-3.19 0.08,-4.45l-0.62,0.06s-0.1,3.47 -0.18,8.72c-0.16,9.34 -0.29,24.32 0.18,35.29c0.72,17.14 5.77,51.05 5.77,51.05l0,17.5a31.23,31.23 0 0 0 4,21.47l1.27,11.29s3.79,9.56 2.89,13.53s2.7,18.8 2.7,18.8zm64.22,41.13a21,21 0 0 1 -3.45,-8.57c-2.23,2 0.33,9.81 2.73,12.9c2.52,3.24 21.28,5.23 24.89,-0.72l0,-3.44c-4.88,4.84 -21.75,2.9 -24.17,-0.17zm27.42,-20.38a35,35 0 0 0 -2.53,5.41l0,2.51c0.41,-0.93 1,-2.16 1.81,-3.62a10.79,10.79 0 0 0 0.79,-4.46a0.61,0.61 0 0 0 -0.07,0.16zm-26.31,2.84a34.82,34.82 0 0 0 1.78,-4.29s-3.07,0.72 -7.94,-5c-3.55,-4.2 -3.75,-12.13 -3.24,-17.31c-0.91,3.06 -2.35,15.87 2.52,21.64c3.19,3.73 5.59,4.72 6.88,4.96zm-9.41,-40a96.4,96.4 0 0 1 0.36,10.69a15.59,15.59 0 0 1 0.37,-1.68c0.91,-3.06 0,-13.34 0,-13.34s0.18,-7.22 -1.26,-9.56s-4.51,-15.7 -4.51,-15.7s0,-4.51 -2.52,-6.85s-4.15,-11.55 -4.15,-11.55a11.81,11.81 0 0 1 -1.81,-7.75c0.54,-4.51 -3.06,-9.38 -3.06,-9.38l-6.14,-19.49l-5.77,-14.61l-3.25,8.48s0,1.07 -0.11,2.74l2.64,-6.89l5.77,14.61l6.16,19.49s3.61,4.87 3.07,9.38a11.81,11.81 0 0 0 1.81,7.75s1.62,9.2 4.14,11.55s2.53,6.85 2.53,6.85s3.07,13.35 4.51,15.7s1.22,9.56 1.22,9.56z" id="svg_135"/>
  </g>
  <path d="m669.37,369.51l-1.36,6.58l0.08,2.93l0.06,2.17l-7.53,0.77l-0.84,-1.56c-1.56,-2.82 -4.79,-8.56 -5.84,-9.44c-1.39,-1.17 -3.87,-19.48 -0.89,-18.4a7.88,7.88 0 0 1 4.19,3.8s14.79,1.74 12.13,13.15z" fill="#ffcdd3" id="svg_136"/>
  <path d="m668.15,381.23l-7.53,0.77l-0.84,-1.56a6.65,6.65 0 0 1 8.31,-1.37l0.06,2.16z" id="svg_137" opacity="0.1"/>
  <path d="m670.05,384.79l-9.93,2.3l-0.2,-1.48l-0.57,-4s3.93,-5.24 9.61,-1.31l0.49,2l0.6,2.49z" fill="#dce6f2" id="svg_138"/>
  <path d="m509.27,370.27l-10.59,5.68l-1,-2c-1,-2.11 -2.51,-5.29 -2.92,-6.43c-0.63,-1.75 -5.05,-4 -5.05,-4c-11.09,-10.6 2.12,-19.71 2.12,-19.71c7,-14.07 14.79,4.78 14.79,4.78s1.08,9.93 0.32,10.6s-0.77,3.38 -0.77,3.38a41.06,41.06 0 0 1 2.56,6.07c0.37,1.01 0.54,1.63 0.54,1.63z" fill="#ffcdd3" id="svg_139"/>
  <path d="m509.27,370.27l-10.59,5.68l-1,-2c1.49,-1.24 6.8,-5.54 8.54,-5.35a13.32,13.32 0 0 0 2.51,0.07c0.37,0.98 0.54,1.6 0.54,1.6z" id="svg_140" opacity="0.1"/>
  <path d="m510.35,373.51l-11.9,5.87l-0.24,-2.56l-0.17,-1.77s6.9,-5.91 8.94,-5.69a10.76,10.76 0 0 0 3.11,0l0.13,2.14l0.13,2.01z" fill="#dce6f2" id="svg_141"/>
  <path d="m640.51,413.29s-51.92,5.86 -42.21,2.71c6.75,-2.2 9.43,-6.49 10,-11.26c0.45,-4 -0.57,-8.3 -1.94,-12a51.64,51.64 0 0 0 -4.64,-9.38s39.69,-21.83 31.75,-2a31.8,31.8 0 0 0 -2.25,9.4a26.28,26.28 0 0 0 1,9.51a28.27,28.27 0 0 0 8.29,13.02z" fill="#ffcdd3" id="svg_142"/>
  <path d="m633.47,381.37a31.8,31.8 0 0 0 -2.25,9.4c-3.74,3.14 -7.84,2.93 -13.1,2.93c-4,0 -8.52,1 -11.76,-1a51.64,51.64 0 0 0 -4.64,-9.38s39.69,-21.81 31.75,-1.95z" id="svg_143" opacity="0.1"/>
  <circle cx="617.41" cy="373.61" fill="#ffcdd3" id="svg_144" r="21.47"/>
  <path d="m640.51,413.29s-51.92,5.86 -42.21,2.71c6.75,-2.2 9.43,-6.49 10,-11.26c2.58,-2.8 7.77,-4.82 11.11,-5.89a15.51,15.51 0 0 1 9.41,-0.15a13.07,13.07 0 0 1 3.42,1.58a28.27,28.27 0 0 0 8.27,13.01zm29.54,-28.5l-9.93,2.3l-0.2,-1.48a8.77,8.77 0 0 1 9.53,-3.26l0.6,2.44zm-159.7,-11.28l-11.9,5.87l-0.24,-2.56a87.48,87.48 0 0 1 12,-5.32l0.14,2.01zm150.69,170.59c-20.1,3.18 -48.72,7.31 -53.26,5.93c-3.76,-1.15 -15.79,-1 -26.26,-0.67c0.09,-5.24 0.18,-8.71 0.18,-8.71l77.93,-8.14a64.36,64.36 0 0 0 1.41,11.59z" id="svg_145" opacity="0.1"/>
  <path d="m681.09,539.38s-66.2,11.37 -73.31,9.2s-43.58,0.18 -43.58,0.18c-16.41,11 -9.56,-5.23 -9.56,-5.23s-1.44,-8.48 0.54,-15.33a93.37,93.37 0 0 0 2.76,-15.33s-0.36,-10.83 1.62,-13.35s4.33,-20.57 4.33,-20.57s1.81,-12.26 1.63,-15a102.58,102.58 0 0 1 0.54,-10.28l2.34,-12.63c-13.53,-1.8 -54.66,-27.06 -54.66,-27.06c-2,-8.47 -17.31,-28.32 -17.31,-28.32a20.6,20.6 0 0 0 -1.27,-4.87c-1.08,-2.88 15.16,-8.65 15.16,-8.65s12.08,14.79 14.61,18.76s11.18,11.36 11.18,11.36a8.8,8.8 0 0 1 4,0.52l0.21,0.06a32.34,32.34 0 0 1 8.08,4.64a15.66,15.66 0 0 1 11,4.15s7.4,-1.08 8.66,0.18s7.58,0 7.58,0s6.31,-13.35 10.46,-9.47s21.75,3.7 21.75,3.7c2.35,-3.12 8.06,-5.36 11.63,-6.51a15.58,15.58 0 0 1 9.41,-0.15a12.13,12.13 0 0 1 3.71,1.79l10.68,10.46s3.07,-4 2.71,-4.87s3.61,-1.62 3.61,-1.62s5.23,-1.63 7.21,-2.17s3.8,1.61 4,1.8c-0.06,-0.23 -1.42,-4.6 -0.89,-7.93s-2.17,-6.5 -2.17,-6.5c6.32,-15.51 20.57,-2.52 20.57,-2.52s1.62,8.48 0.18,11.72s1.44,10.11 1.08,11.91s0.72,4.87 0.72,8.3s-1.8,9.92 -2.89,12.8s-9.74,9.38 -9.74,9.38s-0.54,10.29 -4.33,16.24s-1.55,26.34 -1.55,26.34s3.61,15.91 8.15,21s11.15,33.87 11.15,33.87z" fill="#656691" id="svg_146"/>
  <path d="m584.59,420.69s-2,-5.95 -3.79,-6.49a42.93,42.93 0 0 1 -5.23,-2.35l1.16,-2.22s6.77,1.86 7.86,3.84s0,7.22 0,7.22zm-36.26,-13.18c-0.36,1.8 -16.42,3.43 -16.42,3.43l8.12,-8.14l0.2,0.07a32.34,32.34 0 0 1 8.1,4.64z" id="svg_147" opacity="0.1"/>
  <circle cx="501.87" cy="382.76" fill="#575988" id="svg_148" r="1.44"/>
  <circle cx="503.72" cy="385.65" fill="#575988" id="svg_149" r="1.44"/>
  <circle cx="505.53" cy="388.31" fill="#575988" id="svg_150" r="1.44"/>
  <circle cx="507.42" cy="391.2" fill="#575988" id="svg_151" r="1.44"/>
  <circle cx="677.46" cy="391.04" fill="#575988" id="svg_152" r="1.17"/>
  <circle cx="677.64" cy="393.7" fill="#575988" id="svg_153" r="1.17"/>
  <circle cx="677.8" cy="396.36" fill="#575988" id="svg_154" r="1.17"/>
  <path d="m584.68,469.57c-0.17,-0.21 40.49,51.14 72.06,21.47c0,0 -49.88,6.76 -72.06,-21.47zm-23.36,26.7s24.33,0.66 26.87,7.66l0,7.29a4.65,4.65 0 0 1 -4.52,0c-2.45,-1.33 -17.17,-8.8 -22.35,-5.21l0,-9.74z" id="svg_155" opacity="0.1"/>
  <path d="m561.77,496.27s23.27,0.63 25.7,7.31l0,6.93a4.46,4.46 0 0 1 -4.33,0c-2.34,-1.26 -16.41,-8.39 -21.37,-5l0,-9.24z" fill="#656691" id="svg_156"/>
  <path d="m574.6,443.43a78.61,78.61 0 0 0 9.43,16.19a63.48,63.48 0 0 0 14.78,14.27s-23.81,-27.11 -24.21,-30.46zm-7.96,-28.27s4.06,17.52 14.52,23.48l-14.52,-23.48zm-6.23,1.77c-0.1,-0.32 -3.6,13.86 13.49,21.71c0.04,0 -7.26,-2.47 -13.49,-21.71zm106.25,-11.75c-0.27,0 8.44,5.54 10.8,8.11c0,0 -5.66,-8.47 -10.8,-8.11z" id="svg_157" opacity="0.1"/>
  <path d="m611.61,393.07a4.57,4.57 0 0 0 1.68,2.9a4.63,4.63 0 0 0 2,0.45c6.55,0.4 13.36,0.69 19.41,-1.83a7.34,7.34 0 0 0 3,-1.95c1.08,-1.32 1.28,-3.11 1.72,-4.75c0.84,-3.21 2.65,-6.07 4,-9.12a30.59,30.59 0 0 0 2.12,-16.37a10.85,10.85 0 0 0 -1.63,-4.79c-1.74,-2.48 -4.9,-3.48 -7.2,-5.45s-3.77,-5 -6.45,-6.48c-2.42,-1.34 -5.37,-1.18 -8.1,-0.72a42.74,42.74 0 0 0 -15.22,5.68c-1.55,0.95 -3.26,2.05 -5,1.72c-1.57,-0.3 -2.71,-1.62 -3.72,-2.85a20,20 0 0 0 -1.6,9.35a4.16,4.16 0 0 1 0,1.41a4.35,4.35 0 0 1 -1,1.49c-1.62,1.87 -2.63,4.84 -1,6.73c0.69,0.83 1.76,1.28 2.44,2.12c1.21,1.51 0.8,3.67 0.77,5.61a2.86,2.86 0 0 0 0.48,1.9a2.77,2.77 0 0 0 2.65,0.63a7.35,7.35 0 0 1 2.82,-0.27a4.64,4.64 0 0 1 2.45,1.89c2.94,3.84 4.11,8.07 5.38,12.7z" fill="#2d293d" id="svg_158"/>
  <g id="svg_159" opacity="0.1">
   <path d="m638.39,390.98a7.26,7.26 0 0 1 -3,2c-6,2.52 -12.86,2.23 -19.41,1.82a4.36,4.36 0 0 1 -2,-0.45a4.54,4.54 0 0 1 -1.68,-2.9c-1.27,-4.62 -2.44,-8.85 -5.47,-12.69a4.64,4.64 0 0 0 -2.45,-1.89a7.16,7.16 0 0 0 -2.82,0.27a2.79,2.79 0 0 1 -2.62,-0.63a2.88,2.88 0 0 1 -0.48,-1.91c0,-1.93 0.44,-4.1 -0.77,-5.6c-0.68,-0.85 -1.74,-1.29 -2.44,-2.12a4.24,4.24 0 0 1 -0.42,-4.31c-1.14,1.82 -1.64,4.16 -0.3,5.75c0.69,0.83 1.76,1.28 2.44,2.12c1.21,1.51 0.8,3.67 0.77,5.61a2.86,2.86 0 0 0 0.48,1.9a2.77,2.77 0 0 0 2.65,0.63a7.35,7.35 0 0 1 2.82,-0.27a4.64,4.64 0 0 1 2.45,1.89c3,3.84 4.2,8.07 5.47,12.7a3.39,3.39 0 0 0 3.7,3.35c6.55,0.4 13.36,0.69 19.41,-1.83a7.34,7.34 0 0 0 3,-1.95a5.73,5.73 0 0 0 0.93,-1.74a3.06,3.06 0 0 1 -0.26,0.25zm-41.77,-31.28a3,3 0 0 0 0.66,-1.08a4.17,4.17 0 0 0 0,-1.41a19.9,19.9 0 0 1 1,-7.77l-0.12,-0.14a19.86,19.86 0 0 0 -1.6,9.35a6.15,6.15 0 0 1 0.06,1.05z" id="svg_160"/>
  </g>
  <path d="m607.78,406.08s26.82,3.55 29.23,-0.48m22.93,-10.62s14.89,0 18.17,5.61" id="svg_161" opacity="0.1"/>
  <path d="m980.68,381.51s1.86,2.43 -0.86,6.11s-5,6.79 -4.06,9.08c0,0 4.11,-6.83 7.45,-6.93s1.15,-4.2 -2.53,-8.26z" fill="#00c7fa" id="svg_162"/>
  <path d="m980.68,381.51a3.29,3.29 0 0 1 0.38,0.76c3.26,3.84 5,7.41 1.86,7.5c-2.92,0.09 -6.42,5.31 -7.26,6.63c0,0.1 0.06,0.2 0.1,0.3s4.11,-6.83 7.45,-6.93s1.15,-4.2 -2.53,-8.26z" id="svg_163" opacity="0.1"/>
  <path d="m984.14,384.56c0,0.86 -0.09,1.56 -0.21,1.56s-0.22,-0.7 -0.22,-1.56s0.12,-0.45 0.24,-0.45s0.19,-0.4 0.19,0.45z" fill="#ffd037" id="svg_164"/>
  <path d="m985.33,385.59c-0.75,0.41 -1.41,0.66 -1.46,0.55s0.5,-0.52 1.26,-0.93s0.45,-0.11 0.51,0s0.45,-0.03 -0.31,0.38z" fill="#ffd037" id="svg_165"/>
  <path d="m970.84,381.51s-1.87,2.43 0.86,6.11s5,6.79 4.06,9.08c0,0 -4.11,-6.83 -7.46,-6.93s-1.14,-4.2 2.54,-8.26z" fill="#00c7fa" id="svg_166"/>
  <path d="m970.84,381.51a3.05,3.05 0 0 0 -0.39,0.76c-3.26,3.84 -5,7.41 -1.86,7.5c2.92,0.09 6.43,5.31 7.27,6.63c0,0.1 -0.06,0.2 -0.1,0.3s-4.11,-6.83 -7.46,-6.93s-1.14,-4.2 2.54,-8.26z" id="svg_167" opacity="0.1"/>
  <path d="m967.37,384.56c0,0.86 0.1,1.56 0.22,1.56a3.16,3.16 0 0 0 0.21,-1.56c0,-0.85 -0.12,-0.45 -0.24,-0.45s-0.19,-0.4 -0.19,0.45z" fill="#ffd037" id="svg_168"/>
  <path d="m966.18,385.59c0.76,0.41 1.41,0.66 1.47,0.55s-0.51,-0.52 -1.26,-0.93s-0.46,-0.11 -0.52,0s-0.44,-0.03 0.31,0.38z" fill="#ffd037" id="svg_169"/>
  <path d="m967.94,396.33s5.21,-0.16 6.78,-1.28s8,-2.45 8.41,-0.66s7.83,8.92 2,9s-13.67,-0.91 -15.24,-1.87s-1.95,-5.19 -1.95,-5.19z" fill="#a8a8a8" id="svg_170"/>
  <path d="m985.2,402.74c-5.88,0 -13.67,-0.92 -15.23,-1.87c-1.2,-0.73 -1.67,-3.34 -1.83,-4.54l-0.2,0s0.33,4.21 1.9,5.16s9.35,1.92 15.24,1.87c1.7,0 2.28,-0.62 2.25,-1.51c-0.22,0.54 -0.86,0.88 -2.13,0.89z" id="svg_171" opacity="0.2"/>
 </g>
</svg>