<?xml version="1.0" encoding="utf-8"?>
<svg xmlns="http://www.w3.org/2000/svg" viewBox="0 0 500 500">
  <defs>
    <linearGradient id="a" x1="352.43" y1="317.15" x2="352.43" y2="135.71" gradientUnits="userSpaceOnUse" gradientTransform="matrix(0.488534, 0, 0, 0.488534, 13.00782, 84.719067)">
      <stop offset="0" stop-color="gray" stop-opacity=".25"/>
      <stop offset="0.54" stop-color="gray" stop-opacity=".12"/>
      <stop offset="1" stop-color="gray" stop-opacity=".1"/>
    </linearGradient>
    <linearGradient id="b" x1="569.83" y1="551.49" x2="569.83" y2="380.82" href="#a" gradientTransform="matrix(0.488534, 0, 0, 0.488534, 13.00782, 84.719067)"/>
    <linearGradient id="c" x1="171.5" y1="319.2" x2="171.5" y2="319.02" href="#a" gradientTransform="matrix(0.488534, 0, 0, 0.488534, -30.115089, 69.53542)"/>
    <linearGradient id="d" x1="228.01" y1="853.75" x2="228.01" y2="250.26" href="#a" gradientTransform="matrix(0.488534, 0, 0, 0.488534, -30.115089, 69.535419)"/>
    <linearGradient id="a-1" x1="171.5" y1="319.2" x2="171.5" y2="319.02" href="#gradient-1" gradientTransform="matrix(0.488534, 0, 0, 0.488534, 305.570431, 56.231729)"/>
    <linearGradient id="gradient-1" x1="352.43" y1="317.15" x2="352.43" y2="135.71" gradientUnits="userSpaceOnUse" gradientTransform="matrix(0.488534, 0, 0, 0.488534, 13.00782, 84.719067)">
      <stop offset="0" stop-color="gray" stop-opacity=".25"/>
      <stop offset="0.54" stop-color="gray" stop-opacity=".12"/>
      <stop offset="1" stop-color="gray" stop-opacity=".1"/>
    </linearGradient>
    <linearGradient id="a-2" x1="228.01" y1="853.75" x2="228.01" y2="250.26" href="#gradient-1" gradientTransform="matrix(0.488534, 0, 0, 0.488534, 305.570431, 56.231722)"/>
  </defs>
  <ellipse cx="98.99" cy="479.381" rx="85.982" ry="14.651" fill="#00c7fa" opacity=".1"/>
  <ellipse cx="412.058" cy="468.857" rx="85.982" ry="14.651" fill="#00c7fa" opacity=".1"/>
  <path d="M 138.514 84.089 C 116.041 85.291 93.334 91.856 75.8 105.97 C 60.416 118.359 49.322 137.837 52.028 157.408 C 55.223 180.511 75.835 197.316 83.48 219.354 C 88.4 233.522 87.633 249.155 84.413 263.811 C 82.342 273.254 79.157 282.707 73.035 290.192 C 62.009 303.656 42.111 310.153 36.693 326.69 C 30.802 344.673 45.648 362.309 59.596 375.099 C 70.729 385.304 82.391 395.461 96.421 401.055 C 106.681 405.148 117.814 406.619 128.85 407.205 C 159.325 408.804 189.793 403.936 218.252 392.92 C 231.887 387.63 245.077 380.922 259.348 377.732 C 289.759 370.932 321.049 380.736 351.871 385.329 C 378.292 389.254 405.142 389.333 431.585 385.563 C 448.225 383.189 465.416 378.904 477.947 367.707 C 490.649 356.339 497 338.742 496.296 321.692 C 495.593 304.642 488.402 288.228 477.81 274.842 C 464.131 257.553 445.264 245.251 428.849 230.517 C 412.135 215.506 397.917 197.93 386.728 178.449 C 380.279 167.213 374.793 155.288 366.439 145.395 C 353.41 129.977 334.513 120.807 315.632 113.723 C 272.074 97.406 226.894 94.084 181.48 86.873 C 167.288 84.611 152.891 83.336 138.514 84.089 Z" fill="#00c7fa" opacity=".1"/>
  <g opacity=".7" transform="matrix(0.488534, 0, 0, 0.488534, 13.007823, 84.719063)">
    <path fill="#f6f7f9" d="M258.54 367.11H449.5v106.71H258.54z"/>
    <circle cx="294.49" cy="414.48" r="19.88" fill="#00c7fa" opacity=".2"/>
    <path fill="#00c7fa" d="M338.61 390.92h86.62v5.45h-86.62zM338.61 404.81h44.13v5.45h-44.13zM338.61 418.7h71.37v5.45h-71.37zM338.61 432.59h86.62v5.45h-86.62zM401.27 452.64h23.97v10.53h-23.97z" opacity=".2"/>
    <path fill="#f6f7f9" d="M419.31 72.2h190.96v106.71H419.31z"/>
    <circle cx="455.27" cy="119.57" r="19.88" fill="#00c7fa" opacity=".2"/>
    <path fill="#00c7fa" d="M499.39 96.01h86.62v5.45h-86.62zM499.39 109.9h44.13v5.45h-44.13zM499.39 123.79h71.37v5.45h-71.37zM499.39 137.69h86.62v5.45h-86.62zM562.04 157.73h23.97v10.53h-23.97z" opacity=".2"/>
    <path fill="#f6f7f9" d="M482.87 251.36h190.96v106.71H482.87z"/>
    <circle cx="518.82" cy="298.74" r="19.88" fill="#00c7fa" opacity=".2"/>
    <path fill="#00c7fa" d="M562.95 275.18h86.62v5.45h-86.62zM562.95 289.07h44.13v5.45h-44.13zM562.95 302.96h71.37v5.45h-71.37zM562.95 316.85h86.62v5.45h-86.62zM625.6 336.9h23.97v10.53H625.6z" opacity=".2"/>
  </g>
  <path fill="url(#a)" d="M 106.748 151.018 L 263.621 151.018 L 263.621 239.658 L 106.748 239.658 L 106.748 151.018 Z"/>
  <path fill="#f6f7f9" d="M 107.857 152.117 L 262.527 152.117 L 262.527 238.554 L 107.857 238.554 L 107.857 152.117 Z"/>
  <circle cx="136.973" cy="190.492" r="16.102" fill="#00c7fa" opacity=".2"/>
  <path fill="#00c7fa" d="M 172.719 171.405 L 242.883 171.405 L 242.883 175.816 L 172.719 175.816 L 172.719 171.405 Z M 172.719 182.66 L 208.461 182.66 L 208.461 187.072 L 172.719 187.072 L 172.719 182.66 Z M 172.719 193.911 L 230.528 193.911 L 230.528 198.323 L 172.719 198.323 L 172.719 193.911 Z M 172.719 205.162 L 242.883 205.162 L 242.883 209.574 L 172.719 209.574 L 172.719 205.162 Z" opacity=".2"/>
  <path fill="#00c7fa" d="M 223.464 221.401 L 242.878 221.401 L 242.878 229.931 L 223.464 229.931 L 223.464 221.401 Z"/>
  <path fill="url(#b)" d="M 216.785 270.763 L 365.993 270.763 L 365.993 354.141 L 216.785 354.141 L 216.785 270.763 Z"/>
  <path fill="#f6f7f9" d="M 217.816 271.334 L 364.963 271.334 L 364.963 353.564 L 217.816 353.564 L 217.816 271.334 Z"/>
  <circle cx="245.521" cy="307.842" r="15.32" fill="#00c7fa" opacity=".2"/>
  <path fill="#00c7fa" d="M 279.523 289.684 L 346.271 289.684 L 346.271 293.88 L 279.523 293.88 L 279.523 289.684 Z M 279.523 300.392 L 313.525 300.392 L 313.525 304.589 L 279.523 304.589 L 279.523 300.392 Z M 279.523 311.096 L 334.517 311.096 L 334.517 315.292 L 279.523 315.292 L 279.523 311.096 Z M 279.523 321.8 L 346.271 321.8 L 346.271 325.996 L 279.523 325.996 L 279.523 321.8 Z" opacity=".2"/>
  <path fill="#00c7fa" d="M 327.8 337.247 L 346.271 337.247 L 346.271 345.362 L 327.8 345.362 L 327.8 337.247 Z" opacity=".5"/>
  <path d="M 53.488 225.378 L 53.849 225.456 C 53.744 225.383 53.614 225.355 53.488 225.378 Z" fill="url(#c)" opacity=".1"/>
  <path d="M 129.074 282.131 C 127.994 274.881 121.409 257.968 121.409 257.968 C 121.291 257.479 121.164 256.961 121.018 256.463 C 116.343 240.395 109.874 238.974 109.874 238.974 L 86.703 234.035 C 86.895 234.154 87.06 234.31 87.192 234.494 L 86.825 234.552 C 85.762 233.298 85.06 231.778 84.793 230.156 C 84.749 229.916 84.71 229.667 84.681 229.413 C 91.75 222.528 91.125 210.988 83.352 204.908 C 83.113 204.718 82.863 204.537 82.609 204.356 C 83.704 203.198 83.738 201.581 82.922 199.959 C 81.095 196.163 77.128 193.765 73.044 192.597 C 69.927 191.703 66.546 191.415 63.459 192.392 C 61.695 192.949 60.093 193.892 58.442 194.717 C 55.364 196.256 51.973 197.473 49.648 199.998 C 49.106 200.59 48.612 201.342 48.769 202.119 C 48.891 202.7 49.345 203.145 49.643 203.662 C 50.303 204.815 50.132 206.266 49.687 207.522 C 49.242 208.777 48.568 209.965 48.251 211.235 C 47.933 212.505 48.06 214.039 49.028 214.957 C 49.497 215.325 49.987 215.668 50.493 215.983 C 51.024 216.433 51.489 216.954 51.876 217.532 L 54.621 221.24 C 55.903 222.884 57.047 224.63 58.041 226.462 C 58.72 227.806 59.253 229.247 60.166 230.449 C 60.435 230.806 60.741 231.134 61.08 231.426 C 60.992 231.392 60.899 231.362 60.811 231.323 C 61.629 232.12 62.738 232.546 63.879 232.501 L 64.016 232.501 C 64.225 232.497 64.426 232.415 64.578 232.271 L 64.578 232.76 C 64.626 234.543 64.622 236.438 64.495 238.216 L 64.28 238.109 C 63.63 237.783 62.849 237.865 62.281 238.319 L 40.937 255.418 C 40.937 255.418 36.301 261.769 36.946 272.712 L 33.209 289.136 C 33.209 289.136 28.534 303.074 32.129 313.026 C 35.725 322.977 37.811 328.659 37.811 328.659 C 37.811 328.659 39.247 339.963 41.406 340.872 C 43.566 341.781 44.499 342.299 44.499 342.299 L 44.929 345 C 44.929 345 45.07 345.259 45.324 345.709 C 46.898 348.44 52.716 358.083 56.101 357.057 C 56.524 359.675 56.709 362.325 56.654 364.976 L 59.995 387.449 C 59.995 387.449 62.33 393.561 62.189 396.76 C 62.047 399.96 64.92 404.513 64.92 404.513 C 63.176 407.703 62.664 411.422 63.483 414.963 C 64.851 420.938 66.576 448.521 66.576 448.521 L 69.092 455.204 L 69.018 463.02 C 68.81 464.29 68.278 465.484 67.475 466.489 C 65.853 468.248 65.96 470.28 62.101 472.679 C 58.241 475.077 55.75 475.981 55.75 479.181 C 55.745 479.623 55.706 480.064 55.632 480.5 C 55.271 482.84 54.572 484.101 61.739 484.784 C 70.152 485.581 75.76 480.09 75.76 480.09 C 75.76 480.09 76.996 477.847 82.824 476.944 C 82.824 476.944 84.813 476.836 84.925 475.072 C 84.964 474.467 84.954 473.304 84.901 472.024 C 84.808 469.581 84.573 466.738 84.265 466.596 C 83.88 466.425 83.196 463.968 82.961 463.079 L 84.583 463.079 C 84.583 463.079 86.093 451.774 84.583 444.446 C 83.073 437.118 84.441 431.935 84.441 431.935 L 84.153 412.599 C 84.153 412.599 82.116 410.532 83.713 406.77 C 85.311 403.009 83.713 384.376 83.713 384.376 C 83.713 384.376 84.295 377.693 85.946 376.13 C 87.597 374.566 86.029 366.335 85.946 365.905 L 88.877 375.773 C 88.877 375.773 90.172 395.397 92.908 398.954 L 93.699 407.835 C 93.699 407.835 99.307 416.014 98.228 420.425 C 97.148 424.836 99.381 440.758 99.381 440.758 L 99.381 457.041 C 99.381 457.041 96.86 463.582 100.387 465.927 L 101.906 465.868 C 101.389 466.357 101.017 467.036 100.441 467.637 C 99.767 468.331 99.386 470.969 99.171 473.236 C 98.99 475.155 98.931 476.807 98.931 476.807 C 98.931 476.807 100.441 479.205 103.245 479.367 C 106.049 479.528 115.326 486.621 115.326 486.621 C 115.326 486.621 124.501 486.621 126.871 486.133 L 127.012 486.099 C 127.773 485.856 128.413 485.332 128.8 484.633 C 129.278 483.824 129.433 482.865 129.235 481.946 C 128.937 480.544 127.828 479.015 125.361 477.701 C 119.21 474.452 118.297 471.413 118.297 471.413 L 114.266 465.375 L 114.843 465.375 C 114.843 465.375 114.486 458.975 118.868 451.794 L 118.585 420.156 C 118.585 420.156 120.378 409.277 117.29 403.375 C 117.29 403.375 117.036 397.117 119.103 395.197 C 121.169 393.277 116.352 373.868 116.352 373.868 C 116.352 373.868 115.375 363.452 114.183 353.945 C 119.034 358.547 124.071 341.971 124.931 339.025 L 125.058 339.025 C 125.058 339.025 125.034 338.947 124.999 338.81 C 124.965 338.674 125.058 338.6 125.058 338.6 C 125.058 338.576 123.983 334.765 124.77 335.542 C 125.556 336.319 127.506 333.412 127.506 333.412 C 127.506 333.412 127.217 317.554 130.598 309.562 C 133.979 301.57 129.074 282.131 129.074 282.131 Z M 114.618 292.219 L 114.643 292.175 C 115.131 301.858 114.545 322.518 114.545 322.518 C 114.545 322.518 113.88 325.166 113.167 328.283 L 112.654 308.653 L 112.166 290.167 L 114.618 292.219 Z M 52.706 285.546 C 52.706 285.546 55.149 316.118 52.706 320.525 C 52.008 321.78 51.426 324.013 50.943 326.568 C 50.136 324.448 48.427 319.469 49.037 316.831 C 49.829 313.412 47.454 304.457 47.454 304.247 C 47.454 304.037 47.239 299.269 48.964 295.605 C 50.689 291.941 49.54 290.377 49.54 290.377 C 49.54 290.377 50.982 284.407 52.706 285.546 Z" fill="url(#d)"/>
  <path d="M 58.657 354.4 C 56.531 363.76 48.06 349.602 46.131 346.207 L 45.74 345.503 L 46.658 341.199 L 51.514 339.221 C 52.281 339.622 53.008 340.096 53.683 340.638 C 56.356 342.709 60.298 347.15 58.657 354.4 Z M 124.364 339.079 L 124.311 339.289 C 124.311 339.353 124.267 339.426 124.242 339.519 C 123.412 342.45 118.473 358.894 113.705 354.326 C 108.487 349.314 111.022 337.804 111.022 337.804 L 111.071 337.804 L 122.049 336.68 L 124.223 338.918 L 124.364 339.079 Z" fill="#efb7b9"/>
  <path d="M 118.013 420.034 L 118.292 451.437 C 113.993 458.57 114.34 464.921 114.34 464.921 L 100.172 465.483 C 96.713 463.157 99.195 456.664 99.195 456.664 L 99.195 440.499 C 99.195 440.499 96.982 424.7 98.037 420.303 C 99.092 415.906 93.592 407.811 93.592 407.811 L 92.82 398.993 C 90.133 395.466 88.863 375.983 88.863 375.983 L 85.975 366.212 C 86.049 366.637 87.548 374.85 85.975 376.359 C 84.402 377.869 83.787 384.547 83.787 384.547 C 83.787 384.547 85.34 403.038 83.787 406.775 C 82.233 410.513 84.207 412.638 84.207 412.638 L 84.495 431.832 C 84.495 431.832 83.152 436.986 84.632 444.256 C 86.112 451.525 84.632 462.747 84.632 462.747 L 69.39 462.747 L 69.458 454.93 L 66.991 448.296 C 66.991 448.296 65.296 420.914 63.957 414.988 C 63.153 411.473 63.653 407.785 65.364 404.611 C 65.364 404.611 62.545 400.092 62.687 396.917 C 62.829 393.741 60.532 387.674 60.532 387.674 L 57.25 365.372 C 57.342 361.081 56.795 356.8 55.628 352.67 C 53.717 346.319 50.899 337.99 50.899 337.99 L 54.084 338.273 L 70.166 339.705 C 70.166 339.705 109.249 337.076 111.013 339.26 C 111.384 339.973 111.635 340.742 111.755 341.537 C 113.509 349.426 115.83 374.127 115.83 374.127 C 115.83 374.127 120.559 393.394 118.526 395.3 C 116.494 397.205 116.748 403.414 116.748 403.414 C 119.777 409.238 118.013 420.034 118.013 420.034 Z" fill="#444053"/>
  <path d="M 84.964 474.638 C 84.852 476.387 82.898 476.494 82.898 476.494 C 77.182 477.393 75.97 479.621 75.97 479.621 C 75.97 479.621 70.464 485.068 62.218 484.301 C 55.188 483.627 55.867 482.347 56.229 480.051 C 56.3 479.618 56.338 479.18 56.341 478.741 C 56.341 475.566 58.784 474.662 62.589 472.283 C 66.395 469.904 66.292 467.886 67.88 466.142 C 69.468 464.398 69.629 461.012 69.629 461.012 C 71.427 457.886 75.98 461.501 75.98 461.501 C 76.19 462.61 82.966 462.478 82.966 462.478 C 82.966 462.478 83.865 466.079 84.324 466.289 C 84.627 466.43 84.857 469.254 84.949 471.662 C 84.993 472.884 84.998 474.042 84.964 474.638 Z" fill="#b07473"/>
  <path d="M 84.964 474.638 C 84.852 476.387 82.898 476.494 82.898 476.494 C 77.182 477.393 75.97 479.621 75.97 479.621 C 75.97 479.621 70.464 485.068 62.218 484.301 C 55.188 483.627 55.867 482.347 56.229 480.051 C 59.37 480.832 65.379 481.917 68.886 480.012 C 73.772 477.364 77.255 475.512 77.255 475.512 L 84.94 471.599 C 84.993 472.884 84.998 474.042 84.964 474.638 Z" opacity=".1"/>
  <path d="M 128.043 484.061 C 127.668 484.759 127.038 485.284 126.284 485.527 C 126.24 485.543 126.194 485.555 126.148 485.561 C 123.817 486.05 114.818 486.05 114.818 486.05 C 114.818 486.05 105.697 478.986 102.962 478.824 C 100.226 478.663 98.726 476.284 98.726 476.284 C 98.726 476.284 98.78 474.643 98.956 472.737 C 99.171 470.485 99.547 467.852 100.206 467.178 C 101.428 465.908 101.672 464.163 104.442 465.272 C 104.442 465.272 108.35 458.379 112.962 463.704 L 117.73 470.939 C 117.73 470.939 118.629 473.954 124.667 477.183 C 127.085 478.478 128.175 480.002 128.463 481.394 C 128.661 482.304 128.512 483.256 128.043 484.061 Z" fill="#b07473"/>
  <path d="M 128.043 484.061 C 127.506 484.516 126.905 485.004 126.284 485.527 C 126.24 485.543 126.194 485.555 126.148 485.561 C 123.817 486.05 114.818 486.05 114.818 486.05 C 114.818 486.05 105.697 478.986 102.962 478.824 C 100.226 478.663 98.726 476.284 98.726 476.284 C 98.726 476.284 98.78 474.643 98.956 472.737 C 101.755 473.578 106.005 475.058 107.144 476.646 C 108.888 479.088 114.188 482.464 114.188 482.464 C 114.188 482.464 124.071 481.516 128.463 481.384 C 128.664 482.298 128.514 483.253 128.043 484.061 Z" opacity=".1"/>
  <path d="M 89.576 237.767 L 76.552 251.529 C 76.552 251.529 60.777 250.366 63.532 245.706 C 64.934 243.336 65.154 238.378 65.032 234.049 C 64.915 229.882 64.485 226.335 64.485 226.335 C 64.485 226.335 86.61 215.324 84.915 225.593 C 84.555 227.529 84.534 229.512 84.852 231.455 C 85.814 236.643 89.576 237.767 89.576 237.767 Z" fill="#efb7b9"/>
  <path d="M 84.91 225.593 C 84.551 227.529 84.529 229.512 84.847 231.455 C 81.791 234.552 77.619 236.292 73.269 236.287 C 70.259 236.287 67.04 233.844 64.622 232.403 C 64.504 228.236 64.48 226.335 64.48 226.335 C 64.48 226.335 86.606 215.324 84.91 225.593 Z" opacity=".1"/>
  <path d="M 89.576 219.134 C 89.58 231.688 75.993 239.538 65.12 233.265 C 54.246 226.992 54.241 211.3 65.11 205.02 C 70.921 201.663 78.195 202.208 83.44 206.393 C 87.316 209.486 89.574 214.175 89.576 219.134 Z" fill="#efb7b9"/>
  <path d="M 111.75 341.497 C 107.691 351.161 81.574 351.361 81.574 351.361 L 81.574 340.828 L 79.991 340.726 C 80.675 343.74 79.014 351.097 79.014 351.097 C 58.373 354.028 53.346 342.26 53.346 342.26 L 54.059 338.234 L 70.142 339.665 C 70.142 339.665 109.225 337.037 110.988 339.221 C 111.366 339.932 111.624 340.702 111.75 341.497 Z" opacity=".1"/>
  <path d="M 81.574 350.091 L 81.574 339.553 L 79.991 339.455 C 80.675 342.47 79.014 349.827 79.014 349.827 C 63.483 352.016 56.785 345.919 54.426 342.743 C 54.004 342.197 53.642 341.608 53.346 340.984 L 59.643 305.522 L 61.109 253.332 L 63.381 244.177 L 63.908 239.78 L 63.908 239.731 L 63.962 239.755 L 65.564 240.444 L 75.179 244.597 L 86.156 236.355 L 86.317 236.233 L 86.86 235.823 L 87.763 236.551 L 90.006 238.348 L 97.207 284.827 C 97.207 284.827 109.694 320.617 112.009 335.063 C 112.102 335.64 112.18 336.177 112.239 336.68 C 113.758 349.846 81.574 350.091 81.574 350.091 Z" fill="#e1e7ef"/>
  <circle cx="76.385" cy="245.603" r="0.928" fill="#67647e"/>
  <circle cx="76.815" cy="254.069" r="0.928" fill="#67647e"/>
  <circle cx="77.739" cy="267.783" r="0.928" fill="#67647e"/>
  <circle cx="79.278" cy="282.546" r="0.928" fill="#67647e"/>
  <circle cx="80.201" cy="296.416" r="0.928" fill="#67647e"/>
  <circle cx="81.129" cy="311.184" r="0.928" fill="#67647e"/>
  <circle cx="80.758" cy="325.796" r="0.928" fill="#67647e"/>
  <path d="M 64.563 310.681 C 64.563 310.681 63.527 324.262 61.632 328.209 C 59.736 332.157 58.876 343.242 58.876 343.242 L 54.48 342.753 C 54.058 342.207 53.696 341.618 53.4 340.994 L 59.697 305.532 L 61.163 253.341 L 63.434 244.186 L 63.962 239.79 C 63.979 239.777 63.999 239.768 64.021 239.765 C 64.52 239.529 65.101 239.538 65.594 239.79 L 65.809 239.897 C 65.745 240.078 65.682 240.263 65.623 240.454 C 63.903 245.852 63.259 255.809 63.259 255.809 C 63.259 255.809 65.73 274.016 66.009 282.487 C 66.287 290.959 64.563 310.681 64.563 310.681 Z" opacity=".1"/>
  <path d="M 53.683 340.638 C 53.635 340.75 53.579 340.859 53.517 340.965 C 51.802 343.862 47.454 345.704 46.131 346.207 L 45.74 345.503 L 46.658 341.199 L 51.514 339.221 C 52.281 339.622 53.008 340.096 53.683 340.638 Z" opacity=".1"/>
  <path d="M 41.929 271.329 L 37.908 273.743 L 34.235 290.045 C 34.235 290.045 29.647 303.88 33.179 313.758 C 36.712 323.637 38.768 329.269 38.768 329.269 C 38.768 329.269 40.18 340.506 42.296 341.41 C 44.411 342.313 45.334 342.821 45.334 342.821 L 45.754 345.503 C 45.754 345.503 51.499 343.549 53.532 340.13 C 55.564 336.71 52.037 328.156 52.037 328.156 C 52.037 328.156 49.003 320.886 49.78 317.501 C 50.557 314.115 48.226 305.219 48.226 305.009 C 48.226 304.799 48.016 300.065 49.692 296.43 C 51.368 292.795 50.259 291.247 50.259 291.247 L 49.199 280.87 L 41.929 271.329 Z" fill="#67647e"/>
  <path d="M 112.083 338.444 C 112.083 338.444 101.428 342.47 98.037 338.933 C 94.647 335.396 95.003 318.903 95.003 318.903 C 95.003 318.903 91.76 288.413 89.708 283.406 C 87.656 278.398 88.731 242.257 88.731 242.257 C 88.731 242.257 87.343 237.591 86.156 236.355 C 86.081 236.274 85.996 236.203 85.902 236.145 L 86.317 236.233 L 87.783 236.551 L 90.025 238.348 L 97.226 284.827 C 97.226 284.827 109.713 320.617 112.029 335.063 L 112.083 338.444 Z" opacity=".1"/>
  <path d="M 124.364 339.504 L 124.242 339.504 C 122.904 339.675 111.052 341.107 111.008 338.644 C 111.008 338.359 111.024 338.073 111.057 337.789 L 122.034 336.666 L 124.208 338.903 C 124.247 339.05 124.281 339.177 124.311 339.275 L 124.364 339.504 Z" opacity=".1"/>
  <path d="M 113.025 254.998 L 120.818 259.057 C 120.818 259.057 127.281 275.843 128.341 283.044 C 128.341 283.044 133.138 302.327 129.807 310.256 C 126.475 318.185 126.773 333.93 126.773 333.93 C 126.773 333.93 124.868 336.822 124.091 336.045 C 123.314 335.269 124.374 339.079 124.374 339.079 C 124.374 339.079 111.071 340.848 111.008 338.229 C 110.944 335.611 114.061 323.124 114.061 323.124 C 114.061 323.124 114.906 293.411 113.705 288.755 C 112.503 284.1 113.025 254.998 113.025 254.998 Z" fill="#67647e"/>
  <path d="M 89.781 286.645 C 89.781 286.645 85.384 297.368 83.992 298.077 C 82.6 298.785 84.275 301.604 84.275 301.604 C 84.275 301.604 92.253 290.455 89.781 286.645 Z M 87.172 249.023 C 87.221 248.818 81.945 254.196 80.538 254.998 C 79.131 255.799 85.668 254.954 87.172 249.023 Z M 72.477 285.795 C 72.477 285.795 64.431 291.003 65.486 293.054 C 66.541 295.106 72.477 285.795 72.477 285.795 Z M 87.099 361.737 C 87.099 361.737 93.938 366.134 104.603 367.243 L 87.099 361.737 Z M 70.655 372.324 C 70.655 372.324 77.006 380.297 79.903 380.512 C 82.8 380.727 70.655 372.324 70.655 372.324 Z M 79.546 403.59 C 79.263 403.732 75.946 410.786 72.56 411.001 C 69.175 411.216 79.546 403.59 79.546 403.59 Z M 108.98 419.042 C 108.98 419.042 115.273 417.635 116.67 422.15 C 116.67 422.15 116.25 420.738 108.98 419.042 Z M 104.745 444.876 C 104.745 444.876 112.366 443.323 113.988 445.443 C 115.61 447.563 104.745 444.876 104.745 444.876 Z M 83.171 448.477 C 83.171 448.545 75.408 450.03 75.716 451.017 C 76.024 452.004 83.992 451.862 84.275 450.309 C 84.506 449.494 83.999 448.654 83.171 448.477 Z M 102.204 455.179 C 102.204 455.179 114.955 453.626 114.154 456.308 C 113.353 458.99 102.204 455.179 102.204 455.179 Z M 35.436 298.077 C 35.51 298.287 43.834 299.415 44.963 302.097 C 44.963 302.097 36.78 298.287 35.51 298.287 M 47.152 319.885 C 47.152 319.885 40.234 322.073 40.722 325.39 C 41.211 328.708 40.024 323.842 47.152 319.885 Z M 43.927 336.68 C 43.927 336.68 46.448 333.222 48.847 333.857 C 51.245 334.492 43.927 336.68 43.927 336.68 Z M 83.435 206.393 C 83.191 206.628 82.919 206.832 82.624 206.999 C 80.616 208.162 80.079 209.93 79.116 212.016 C 78.237 213.907 77.265 215.925 75.482 216.98 C 73.186 218.362 70.157 217.854 67.768 219.066 C 65.602 220.201 64.339 222.534 64.573 224.967 C 64.728 225.885 64.957 226.788 65.257 227.669 C 65.796 229.575 66.041 231.552 65.985 233.531 C 65.992 233.591 65.992 233.652 65.985 233.712 C 54.752 228.108 53.798 212.445 64.268 205.519 C 70.174 201.613 77.926 201.964 83.455 206.388 L 83.435 206.393 Z" opacity=".1"/>
  <path d="M 83.01 201.488 C 81.217 197.722 77.323 195.343 73.317 194.16 C 70.259 193.276 66.942 192.988 63.908 193.96 C 62.179 194.512 60.601 195.426 58.984 196.266 C 55.96 197.795 52.633 199.002 50.361 201.513 C 49.834 202.094 49.345 202.847 49.501 203.618 C 49.619 204.195 50.068 204.635 50.356 205.148 C 51.006 206.291 50.845 207.732 50.4 208.978 C 49.956 210.223 49.306 211.386 48.993 212.666 C 48.681 213.946 48.803 215.446 49.751 216.359 C 50.208 216.722 50.685 217.061 51.177 217.376 C 51.695 217.826 52.15 218.343 52.53 218.914 L 55.222 222.593 C 56.488 224.226 57.616 225.961 58.593 227.781 C 59.267 229.115 59.785 230.542 60.679 231.734 C 61.573 232.926 62.975 233.883 64.46 233.751 C 64.693 233.759 64.915 233.653 65.056 233.468 C 65.115 233.351 65.142 233.222 65.134 233.092 C 65.195 231.112 64.95 229.134 64.407 227.229 C 64.107 226.349 63.878 225.445 63.723 224.528 C 63.49 222.094 64.753 219.762 66.918 218.626 C 69.311 217.42 72.34 217.928 74.636 216.545 C 76.42 215.465 77.392 213.467 78.271 211.577 C 79.248 209.51 79.771 207.722 81.779 206.559 C 83.787 205.397 84.002 203.467 83.01 201.488 Z" fill="#585268"/>
  <path d="M 75.706 467.974 C 75.706 467.974 78.188 471.15 77.553 472.947 C 76.918 474.745 75.706 467.974 75.706 467.974 Z M 109.449 475.913 C 109.449 475.913 110.001 471.653 112.224 471.614 C 114.447 471.575 114.555 471.384 116.25 472.034 C 117.945 472.684 119.533 473.7 119.03 473.856 C 118.526 474.012 116.098 471.413 113.656 472.737 C 112.104 473.581 110.686 474.651 109.449 475.913 Z M 68.266 249.917 L 75.223 245.031 C 75.223 245.031 65.007 238.993 63.791 239.843 C 62.575 240.693 61.739 248.314 61.739 248.314 L 68.266 249.917 Z" opacity=".1"/>
  <path d="M 68.237 249.599 L 75.223 244.597 C 75.223 244.597 65.007 238.563 63.791 239.408 C 62.575 240.254 61.739 248.305 61.739 248.305 L 68.237 249.599 Z" fill="#e1e7ef"/>
  <path d="M 68.237 249.599 L 75.223 244.597 C 75.223 244.597 65.007 238.563 63.791 239.408 C 62.575 240.254 61.739 248.305 61.739 248.305 L 68.237 249.599 Z" opacity=".03"/>
  <path d="M 64.944 239.467 L 64.734 239.36 C 64.099 239.036 63.333 239.116 62.78 239.565 L 41.831 256.561 C 41.831 256.561 37.278 262.858 37.923 273.728 L 50.273 291.232 C 50.273 291.232 51.685 285.301 53.38 286.43 C 53.38 286.43 55.779 316.778 53.38 321.155 C 50.982 325.532 49.922 341.903 49.922 341.903 L 58.036 342.821 C 58.036 342.821 58.881 331.741 60.787 327.789 C 62.692 323.837 63.718 310.256 63.718 310.256 C 63.718 310.256 65.432 290.524 65.149 282.048 C 64.866 273.572 62.399 255.374 62.399 255.374 C 62.399 255.374 63.088 244.704 64.944 239.467 Z" fill="#67647e"/>
  <path d="M 85.809 246.82 L 77.108 243.595 C 77.108 243.595 88.193 231.46 89.571 238.192 L 85.809 246.82 Z" opacity=".1"/>
  <path d="M 85.809 246.385 L 77.108 243.165 C 77.108 243.165 88.193 231.025 89.571 237.757 L 85.809 246.385 Z" fill="#e1e7ef"/>
  <path d="M 85.809 246.385 L 77.108 243.165 C 77.108 243.165 88.193 231.025 89.571 237.757 L 85.809 246.385 Z" opacity=".03"/>
  <path d="M 85.531 236.072 C 85.655 236.049 85.782 236.076 85.887 236.145 L 85.531 236.072 Z" opacity=".1"/>
  <path d="M 86.376 235.222 L 109.474 240.205 C 109.474 240.205 115.825 241.617 120.412 257.562 C 124.999 273.508 114.13 293.054 114.13 293.054 L 111.731 291.017 L 112.933 337.599 C 112.933 337.599 102.273 341.62 98.887 338.087 C 95.502 334.555 95.849 318.058 95.849 318.058 C 95.849 318.058 92.605 287.558 90.553 282.536 C 88.501 277.514 89.576 241.387 89.576 241.387 C 89.576 241.387 87.666 234.943 86.376 235.222 Z" fill="#67647e"/>
  <path d="M 107.495 264.905 C 107.168 265.208 106.792 279.302 108.204 290.03 C 109.07 296.564 110.407 303.026 112.205 309.367 L 110.109 266.376 C 110.109 266.376 108.482 263.972 107.495 264.905 Z M 104.672 252.765 C 105.238 253.117 107.71 258.974 106.577 261.378 C 105.443 263.781 104.672 252.765 104.672 252.765 Z M 82.873 201.488 C 81.742 199.255 79.976 197.406 77.797 196.173 C 79.415 197.327 80.722 198.862 81.603 200.643 C 82.58 202.622 82.306 204.605 80.367 205.729 C 78.427 206.853 77.822 208.66 76.864 210.746 C 75.985 212.637 75.008 214.654 73.225 215.71 C 70.928 217.097 67.904 216.589 65.511 217.791 C 63.345 218.928 62.083 221.262 62.316 223.697 C 62.469 224.615 62.697 225.519 63 226.399 C 63.542 228.304 63.786 230.281 63.723 232.261 C 63.731 232.391 63.706 232.52 63.649 232.637 C 63.508 232.823 63.286 232.929 63.053 232.921 C 62.455 232.968 61.856 232.856 61.314 232.598 C 62.112 233.388 63.202 233.811 64.324 233.766 C 64.556 233.774 64.779 233.668 64.92 233.483 C 64.976 233.365 65.003 233.236 64.998 233.106 C 65.056 231.127 64.811 229.149 64.27 227.244 C 63.968 226.364 63.739 225.46 63.586 224.542 C 63.354 222.109 64.616 219.777 66.781 218.641 C 69.175 217.434 72.199 217.942 74.495 216.56 C 76.278 215.48 77.255 213.482 78.134 211.591 C 79.111 209.525 79.629 207.737 81.637 206.574 C 83.645 205.411 83.86 203.467 82.873 201.488 Z" opacity=".1"/>
  <path d="M 203.902 433.366 C 204.799 432.635 205.452 431.648 205.773 430.537 C 206.017 429.418 205.539 428.07 204.464 427.66 C 203.262 427.2 201.977 428.036 201.005 428.876 C 200.033 429.716 198.914 430.679 197.644 430.498 C 198.975 429.288 199.576 427.47 199.227 425.705 C 199.169 425.347 199.017 425.01 198.787 424.728 C 198.118 424.015 196.906 424.323 196.11 424.885 C 193.57 426.668 192.861 430.122 192.847 433.224 C 192.593 432.105 192.808 430.938 192.798 429.804 C 192.788 428.671 192.48 427.362 191.508 426.766 C 190.911 426.435 190.237 426.266 189.554 426.277 C 188.416 426.233 187.141 426.35 186.364 427.186 C 185.387 428.221 185.646 429.961 186.486 431.094 C 187.326 432.227 188.611 432.955 189.793 433.742 C 190.739 434.306 191.546 435.076 192.153 435.994 C 192.226 436.122 192.285 436.258 192.329 436.399 L 199.491 436.399 C 201.09 435.589 202.573 434.569 203.902 433.366 Z M 488.586 423.058 C 489.488 422.328 490.147 421.342 490.476 420.229 C 490.721 419.11 490.242 417.786 489.167 417.352 C 487.965 416.892 486.68 417.728 485.708 418.568 C 484.736 419.408 483.617 420.371 482.342 420.19 C 483.678 418.983 484.279 417.162 483.925 415.397 C 483.872 415.037 483.72 414.699 483.485 414.42 C 482.821 413.707 481.609 414.015 480.813 414.577 C 478.273 416.36 477.564 419.814 477.55 422.916 C 477.291 421.797 477.511 420.63 477.501 419.496 C 477.491 418.363 477.178 417.054 476.211 416.458 C 475.614 416.127 474.94 415.958 474.257 415.969 C 473.114 415.925 471.844 416.042 471.062 416.878 C 470.085 417.913 470.344 419.653 471.189 420.786 C 472.034 421.919 473.314 422.647 474.496 423.434 C 475.442 423.998 476.249 424.767 476.856 425.686 C 476.927 425.815 476.986 425.951 477.032 426.091 L 484.189 426.091 C 485.783 425.281 487.262 424.26 488.586 423.058 Z M 327.306 445.897 C 328.202 445.165 328.856 444.179 329.182 443.068 C 329.421 441.944 328.942 440.625 327.873 440.19 C 326.671 439.731 325.386 440.562 324.414 441.407 C 323.442 442.252 322.323 443.205 321.048 443.029 C 322.382 441.821 322.983 440.001 322.631 438.236 C 322.575 437.877 322.423 437.539 322.191 437.259 C 321.522 436.546 320.315 436.854 319.514 437.416 C 316.973 439.204 316.265 442.653 316.25 445.76 C 315.996 444.641 316.211 443.473 316.206 442.34 C 316.201 441.207 315.884 439.897 314.917 439.301 C 314.319 438.972 313.645 438.804 312.962 438.813 C 311.819 438.774 310.549 438.886 309.767 439.722 C 308.79 440.762 309.049 442.501 309.894 443.63 C 310.74 444.758 312.02 445.486 313.197 446.278 C 314.155 446.848 314.971 447.63 315.581 448.564 C 315.651 448.692 315.71 448.826 315.757 448.965 L 322.909 448.965 C 324.506 448.145 325.985 447.113 327.306 445.897 Z" fill="#00c7fa"/>
  <path d="M 448.79 460.675 L 448.79 461.022 L 448.815 460.67 L 448.79 460.675 Z M 437.173 477.886 L 443.778 479.254 L 448.663 474.926 L 448.663 473.89 C 448.633 474.358 448.368 474.779 447.96 475.009 L 447.891 475.048 C 445.616 476.253 443.037 476.762 440.475 476.514 L 437.896 476.294 C 437.663 476.319 437.435 476.375 437.217 476.46 L 437.217 476.807 L 437.173 477.886 Z" opacity=".1"/>
  <circle cx="433.01" cy="257.704" r="0.669" opacity=".1"/>
  <circle cx="433.01" cy="261.427" r="0.669" opacity=".1"/>
  <path d="M 389.174 212.074 L 389.535 212.152 C 389.43 212.079 389.3 212.051 389.174 212.074 Z" fill="url(#a-1)" opacity=".1"/>
  <path d="M 464.76 268.827 C 463.68 261.577 457.095 244.664 457.095 244.664 C 456.977 244.175 456.85 243.657 456.704 243.159 C 452.029 227.091 445.56 225.67 445.56 225.67 L 422.389 220.731 C 422.581 220.85 422.746 221.006 422.878 221.19 L 422.511 221.248 C 421.448 219.994 420.746 218.474 420.479 216.852 C 420.435 216.612 420.396 216.363 420.367 216.109 C 427.436 209.224 426.811 197.684 419.038 191.604 C 418.799 191.414 418.549 191.233 418.295 191.052 C 419.39 189.894 419.424 188.277 418.608 186.655 C 416.781 182.859 412.814 180.461 408.73 179.293 C 405.613 178.399 402.232 178.111 399.145 179.088 C 397.381 179.645 395.779 180.588 394.128 181.413 C 391.05 182.952 387.659 184.169 385.334 186.694 C 384.792 187.286 384.298 188.038 384.455 188.815 C 384.577 189.396 385.031 189.841 385.329 190.358 C 385.989 191.511 385.818 192.962 385.373 194.218 C 384.928 195.473 384.254 196.661 383.937 197.931 C 383.619 199.201 383.746 200.735 384.714 201.653 C 385.183 202.021 385.673 202.364 386.179 202.679 C 386.71 203.129 387.175 203.65 387.562 204.228 L 390.307 207.936 C 391.589 209.58 392.733 211.326 393.727 213.158 C 394.406 214.502 394.939 215.943 395.852 217.145 C 396.121 217.502 396.427 217.83 396.766 218.122 C 396.678 218.088 396.585 218.058 396.497 218.019 C 397.315 218.816 398.424 219.242 399.565 219.197 L 399.702 219.197 C 399.911 219.193 400.112 219.111 400.264 218.967 L 400.264 219.456 C 400.312 221.239 400.308 223.134 400.181 224.912 L 399.966 224.805 C 399.316 224.479 398.535 224.561 397.967 225.015 L 376.623 242.114 C 376.623 242.114 371.987 248.465 372.632 259.408 L 368.895 275.832 C 368.895 275.832 364.22 289.77 367.815 299.722 C 371.411 309.673 373.497 315.355 373.497 315.355 C 373.497 315.355 374.933 326.659 377.092 327.568 C 379.252 328.477 380.185 328.995 380.185 328.995 L 380.615 331.696 C 380.615 331.696 380.756 331.955 381.01 332.405 C 382.584 335.136 388.402 344.779 391.787 343.753 C 392.21 346.371 392.395 349.021 392.34 351.672 L 395.681 374.145 C 395.681 374.145 398.016 380.257 397.875 383.456 C 397.733 386.656 400.606 391.209 400.606 391.209 C 398.862 394.399 398.35 398.118 399.169 401.659 C 400.537 407.634 402.262 435.217 402.262 435.217 L 404.778 441.9 L 404.704 449.716 C 404.496 450.986 403.964 452.18 403.161 453.185 C 401.539 454.944 401.646 456.976 397.787 459.375 C 393.927 461.773 391.436 462.677 391.436 465.877 C 391.431 466.319 391.392 466.76 391.318 467.196 C 390.957 469.536 390.258 470.797 397.425 471.48 C 405.838 472.277 411.446 466.786 411.446 466.786 C 411.446 466.786 412.682 464.543 418.51 463.64 C 418.51 463.64 420.499 463.532 420.611 461.768 C 420.65 461.163 420.64 460 420.587 458.72 C 420.494 456.277 420.259 453.434 419.951 453.292 C 419.566 453.121 418.882 450.664 418.647 449.775 L 420.269 449.775 C 420.269 449.775 421.779 438.47 420.269 431.142 C 418.759 423.814 420.127 418.631 420.127 418.631 L 419.839 399.295 C 419.839 399.295 417.802 397.228 419.399 393.466 C 420.997 389.705 419.399 371.072 419.399 371.072 C 419.399 371.072 419.981 364.389 421.632 362.826 C 423.283 361.262 421.715 353.031 421.632 352.601 L 424.563 362.469 C 424.563 362.469 425.858 382.093 428.594 385.65 L 429.385 394.531 C 429.385 394.531 434.993 402.71 433.914 407.121 C 432.834 411.532 435.067 427.454 435.067 427.454 L 435.067 443.737 C 435.067 443.737 432.546 450.278 436.073 452.623 L 437.592 452.564 C 437.075 453.053 436.703 453.732 436.127 454.333 C 435.453 455.027 435.072 457.665 434.857 459.932 C 434.676 461.851 434.617 463.503 434.617 463.503 C 434.617 463.503 436.127 465.901 438.931 466.063 C 441.735 466.224 451.012 473.317 451.012 473.317 C 451.012 473.317 460.187 473.317 462.557 472.829 L 462.698 472.795 C 463.459 472.552 464.099 472.028 464.486 471.329 C 464.964 470.52 465.119 469.561 464.921 468.642 C 464.623 467.24 463.514 465.711 461.047 464.397 C 454.896 461.148 453.983 458.109 453.983 458.109 L 449.952 452.071 L 450.529 452.071 C 450.529 452.071 450.172 445.671 454.554 438.49 L 454.271 406.852 C 454.271 406.852 456.064 395.973 452.976 390.071 C 452.976 390.071 452.722 383.813 454.789 381.893 C 456.855 379.973 452.038 360.564 452.038 360.564 C 452.038 360.564 451.061 350.148 449.869 340.641 C 454.72 345.243 459.757 328.667 460.617 325.721 L 460.744 325.721 C 460.744 325.721 460.72 325.643 460.685 325.506 C 460.651 325.37 460.744 325.296 460.744 325.296 C 460.744 325.272 459.669 321.461 460.456 322.238 C 461.242 323.015 463.192 320.108 463.192 320.108 C 463.192 320.108 462.903 304.25 466.284 296.258 C 469.665 288.266 464.76 268.827 464.76 268.827 Z M 450.304 278.915 L 450.329 278.871 C 450.817 288.554 450.231 309.214 450.231 309.214 C 450.231 309.214 449.566 311.862 448.853 314.979 L 448.34 295.349 L 447.852 276.863 L 450.304 278.915 Z M 388.392 272.242 C 388.392 272.242 390.835 302.814 388.392 307.221 C 387.694 308.476 387.112 310.709 386.629 313.264 C 385.822 311.144 384.113 306.165 384.723 303.527 C 385.515 300.108 383.14 291.153 383.14 290.943 C 383.14 290.733 382.925 285.965 384.65 282.301 C 386.375 278.637 385.226 277.073 385.226 277.073 C 385.226 277.073 386.668 271.103 388.392 272.242 Z" fill="url(#a-2)"/>
  <path d="M 394.343 341.096 C 392.217 350.456 383.746 336.298 381.817 332.903 L 381.426 332.199 L 382.344 327.895 L 387.2 325.917 C 387.967 326.318 388.694 326.792 389.369 327.334 C 392.042 329.405 395.984 333.846 394.343 341.096 Z M 460.05 325.775 L 459.997 325.985 C 459.997 326.049 459.953 326.122 459.928 326.215 C 459.098 329.146 454.159 345.59 449.391 341.022 C 444.173 336.01 446.708 324.5 446.708 324.5 L 446.757 324.5 L 457.735 323.376 L 459.909 325.614 L 460.05 325.775 Z" fill="#efb7b9"/>
  <path d="M 453.699 406.73 L 453.978 438.133 C 449.679 445.266 450.026 451.617 450.026 451.617 L 435.858 452.179 C 432.399 449.853 434.881 443.36 434.881 443.36 L 434.881 427.195 C 434.881 427.195 432.668 411.396 433.723 406.999 C 434.778 402.602 429.278 394.507 429.278 394.507 L 428.506 385.689 C 425.819 382.162 424.549 362.679 424.549 362.679 L 421.661 352.908 C 421.735 353.333 423.234 361.546 421.661 363.055 C 420.088 364.565 419.473 371.243 419.473 371.243 C 419.473 371.243 421.026 389.734 419.473 393.471 C 417.919 397.209 419.893 399.334 419.893 399.334 L 420.181 418.528 C 420.181 418.528 418.838 423.682 420.318 430.952 C 421.798 438.221 420.318 449.443 420.318 449.443 L 405.076 449.443 L 405.144 441.626 L 402.677 434.992 C 402.677 434.992 400.982 407.61 399.643 401.684 C 398.839 398.169 399.339 394.481 401.05 391.307 C 401.05 391.307 398.231 386.788 398.373 383.613 C 398.515 380.437 396.218 374.37 396.218 374.37 L 392.936 352.068 C 393.028 347.777 392.481 343.496 391.314 339.366 C 389.403 333.015 386.585 324.686 386.585 324.686 L 389.77 324.969 L 405.852 326.401 C 405.852 326.401 444.935 323.772 446.699 325.956 C 447.07 326.669 447.321 327.438 447.441 328.233 C 449.195 336.122 451.516 360.823 451.516 360.823 C 451.516 360.823 456.245 380.09 454.212 381.996 C 452.18 383.901 452.434 390.11 452.434 390.11 C 455.463 395.934 453.699 406.73 453.699 406.73 Z" fill="#444053"/>
  <path d="M 420.65 461.334 C 420.538 463.083 418.584 463.19 418.584 463.19 C 412.868 464.089 411.656 466.317 411.656 466.317 C 411.656 466.317 406.15 471.764 397.904 470.997 C 390.874 470.323 391.553 469.043 391.915 466.747 C 391.986 466.314 392.024 465.876 392.027 465.437 C 392.027 462.262 394.47 461.358 398.275 458.979 C 402.081 456.6 401.978 454.582 403.566 452.838 C 405.154 451.094 405.315 447.708 405.315 447.708 C 407.113 444.582 411.666 448.197 411.666 448.197 C 411.876 449.306 418.652 449.174 418.652 449.174 C 418.652 449.174 419.551 452.775 420.01 452.985 C 420.313 453.126 420.543 455.95 420.635 458.358 C 420.679 459.58 420.684 460.738 420.65 461.334 Z" fill="#b07473"/>
  <path d="M 420.65 461.334 C 420.538 463.083 418.584 463.19 418.584 463.19 C 412.868 464.089 411.656 466.317 411.656 466.317 C 411.656 466.317 406.15 471.764 397.904 470.997 C 390.874 470.323 391.553 469.043 391.915 466.747 C 395.056 467.528 401.065 468.613 404.572 466.708 C 409.458 464.06 412.941 462.208 412.941 462.208 L 420.626 458.295 C 420.679 459.58 420.684 460.738 420.65 461.334 Z" opacity=".1"/>
  <path d="M 463.729 470.757 C 463.354 471.455 462.724 471.98 461.97 472.223 C 461.926 472.239 461.88 472.251 461.834 472.257 C 459.503 472.746 450.504 472.746 450.504 472.746 C 450.504 472.746 441.383 465.682 438.648 465.52 C 435.912 465.359 434.412 462.98 434.412 462.98 C 434.412 462.98 434.466 461.339 434.642 459.433 C 434.857 457.181 435.233 454.548 435.892 453.874 C 437.114 452.604 437.358 450.859 440.128 451.968 C 440.128 451.968 444.036 445.075 448.648 450.4 L 453.416 457.635 C 453.416 457.635 454.315 460.65 460.353 463.879 C 462.771 465.174 463.861 466.698 464.149 468.09 C 464.347 469 464.198 469.952 463.729 470.757 Z" fill="#b07473"/>
  <path d="M 463.729 470.757 C 463.192 471.212 462.591 471.7 461.97 472.223 C 461.926 472.239 461.88 472.251 461.834 472.257 C 459.503 472.746 450.504 472.746 450.504 472.746 C 450.504 472.746 441.383 465.682 438.648 465.52 C 435.912 465.359 434.412 462.98 434.412 462.98 C 434.412 462.98 434.466 461.339 434.642 459.433 C 437.441 460.274 441.691 461.754 442.83 463.342 C 444.574 465.784 449.874 469.16 449.874 469.16 C 449.874 469.16 459.757 468.212 464.149 468.08 C 464.35 468.994 464.2 469.949 463.729 470.757 Z" opacity=".1"/>
  <path d="M 425.262 224.463 L 412.238 238.225 C 412.238 238.225 396.463 237.062 399.218 232.402 C 400.62 230.032 400.84 225.074 400.718 220.745 C 400.601 216.578 400.171 213.031 400.171 213.031 C 400.171 213.031 422.296 202.02 420.601 212.289 C 420.241 214.225 420.22 216.208 420.538 218.151 C 421.5 223.339 425.262 224.463 425.262 224.463 Z" fill="#efb7b9"/>
  <path d="M 420.596 212.289 C 420.237 214.225 420.215 216.208 420.533 218.151 C 417.477 221.248 413.305 222.988 408.955 222.983 C 405.945 222.983 402.726 220.54 400.308 219.099 C 400.19 214.932 400.166 213.031 400.166 213.031 C 400.166 213.031 422.292 202.02 420.596 212.289 Z" opacity=".1"/>
  <path d="M 425.262 205.83 C 425.266 218.384 411.679 226.234 400.806 219.961 C 389.932 213.688 389.927 197.996 400.796 191.716 C 406.607 188.359 413.881 188.904 419.126 193.089 C 423.002 196.182 425.26 200.871 425.262 205.83 Z" fill="#efb7b9"/>
  <path d="M 447.436 328.193 C 443.377 337.857 417.26 338.057 417.26 338.057 L 417.26 327.524 L 415.677 327.422 C 416.361 330.436 414.7 337.793 414.7 337.793 C 394.059 340.724 389.032 328.956 389.032 328.956 L 389.745 324.93 L 405.828 326.361 C 405.828 326.361 444.911 323.733 446.674 325.917 C 447.052 326.628 447.31 327.398 447.436 328.193 Z" opacity=".1"/>
  <path d="M 417.26 336.787 L 417.26 326.249 L 415.677 326.151 C 416.361 329.166 414.7 336.523 414.7 336.523 C 399.169 338.712 392.471 332.615 390.112 329.439 C 389.69 328.893 389.328 328.304 389.032 327.68 L 395.329 292.218 L 396.795 240.028 L 399.067 230.873 L 399.594 226.476 L 399.594 226.427 L 399.648 226.451 L 401.25 227.14 L 410.865 231.293 L 421.842 223.051 L 422.003 222.929 L 422.546 222.519 L 423.449 223.247 L 425.692 225.044 L 432.893 271.523 C 432.893 271.523 445.38 307.313 447.695 321.759 C 447.788 322.336 447.866 322.873 447.925 323.376 C 449.444 336.542 417.26 336.787 417.26 336.787 Z" fill="#e1e7ef"/>
  <circle cx="412.071" cy="232.299" r="0.928" fill="#67647e"/>
  <circle cx="412.501" cy="240.765" r="0.928" fill="#67647e"/>
  <circle cx="413.425" cy="254.479" r="0.928" fill="#67647e"/>
  <circle cx="414.964" cy="269.242" r="0.928" fill="#67647e"/>
  <circle cx="415.887" cy="283.112" r="0.928" fill="#67647e"/>
  <circle cx="416.815" cy="297.88" r="0.928" fill="#67647e"/>
  <circle cx="416.444" cy="312.492" r="0.928" fill="#67647e"/>
  <path d="M 400.249 297.377 C 400.249 297.377 399.213 310.958 397.318 314.905 C 395.422 318.853 394.562 329.938 394.562 329.938 L 390.166 329.449 C 389.744 328.903 389.382 328.314 389.086 327.69 L 395.383 292.228 L 396.849 240.037 L 399.12 230.882 L 399.648 226.486 C 399.665 226.473 399.685 226.464 399.707 226.461 C 400.206 226.225 400.787 226.234 401.28 226.486 L 401.495 226.593 C 401.431 226.774 401.368 226.959 401.309 227.15 C 399.589 232.548 398.945 242.505 398.945 242.505 C 398.945 242.505 401.416 260.712 401.695 269.183 C 401.973 277.655 400.249 297.377 400.249 297.377 Z" opacity=".1"/>
  <path d="M 389.369 327.334 C 389.321 327.446 389.265 327.555 389.203 327.661 C 387.488 330.558 383.14 332.4 381.817 332.903 L 381.426 332.199 L 382.344 327.895 L 387.2 325.917 C 387.967 326.318 388.694 326.792 389.369 327.334 Z" opacity=".1"/>
  <path d="M 377.615 258.025 L 373.594 260.439 L 369.921 276.741 C 369.921 276.741 365.333 290.576 368.865 300.454 C 372.398 310.333 374.454 315.965 374.454 315.965 C 374.454 315.965 375.866 327.202 377.982 328.106 C 380.097 329.009 381.02 329.517 381.02 329.517 L 381.44 332.199 C 381.44 332.199 387.185 330.245 389.218 326.826 C 391.25 323.406 387.723 314.852 387.723 314.852 C 387.723 314.852 384.689 307.582 385.466 304.197 C 386.243 300.811 383.912 291.915 383.912 291.705 C 383.912 291.495 383.702 286.761 385.378 283.126 C 387.054 279.491 385.945 277.943 385.945 277.943 L 384.885 267.566 L 377.615 258.025 Z" fill="#67647e"/>
  <path d="M 447.769 325.14 C 447.769 325.14 437.114 329.166 433.723 325.629 C 430.333 322.092 430.689 305.599 430.689 305.599 C 430.689 305.599 427.446 275.109 425.394 270.102 C 423.342 265.094 424.417 228.953 424.417 228.953 C 424.417 228.953 423.029 224.287 421.842 223.051 C 421.767 222.97 421.682 222.899 421.588 222.841 L 422.003 222.929 L 423.469 223.247 L 425.711 225.044 L 432.912 271.523 C 432.912 271.523 445.399 307.313 447.715 321.759 L 447.769 325.14 Z" opacity=".1"/>
  <path d="M 460.05 326.2 L 459.928 326.2 C 458.59 326.371 446.738 327.803 446.694 325.34 C 446.694 325.055 446.71 324.769 446.743 324.485 L 457.72 323.362 L 459.894 325.599 C 459.933 325.746 459.967 325.873 459.997 325.971 L 460.05 326.2 Z" opacity=".1"/>
  <path d="M 448.711 241.694 L 456.504 245.753 C 456.504 245.753 462.967 262.539 464.027 269.74 C 464.027 269.74 468.824 289.023 465.493 296.952 C 462.161 304.881 462.459 320.626 462.459 320.626 C 462.459 320.626 460.554 323.518 459.777 322.741 C 459 321.965 460.06 325.775 460.06 325.775 C 460.06 325.775 446.757 327.544 446.694 324.925 C 446.63 322.307 449.747 309.82 449.747 309.82 C 449.747 309.82 450.592 280.107 449.391 275.451 C 448.189 270.796 448.711 241.694 448.711 241.694 Z" fill="#67647e"/>
  <path d="M 425.467 273.341 C 425.467 273.341 421.07 284.064 419.678 284.773 C 418.286 285.481 419.961 288.3 419.961 288.3 C 419.961 288.3 427.939 277.151 425.467 273.341 Z M 422.858 235.719 C 422.907 235.514 417.631 240.892 416.224 241.694 C 414.817 242.495 421.354 241.65 422.858 235.719 Z M 408.163 272.491 C 408.163 272.491 400.117 277.699 401.172 279.75 C 402.227 281.802 408.163 272.491 408.163 272.491 Z M 422.785 348.433 C 422.785 348.433 429.624 352.83 440.289 353.939 L 422.785 348.433 Z M 406.341 359.02 C 406.341 359.02 412.692 366.993 415.589 367.208 C 418.486 367.423 406.341 359.02 406.341 359.02 Z M 415.232 390.286 C 414.949 390.428 411.632 397.482 408.246 397.697 C 404.861 397.912 415.232 390.286 415.232 390.286 Z M 444.666 405.738 C 444.666 405.738 450.959 404.331 452.356 408.846 C 452.356 408.846 451.936 407.434 444.666 405.738 Z M 440.431 431.572 C 440.431 431.572 448.052 430.019 449.674 432.139 C 451.296 434.259 440.431 431.572 440.431 431.572 Z M 418.857 435.173 C 418.857 435.241 411.094 436.726 411.402 437.713 C 411.71 438.7 419.678 438.558 419.961 437.005 C 420.192 436.19 419.685 435.35 418.857 435.173 Z M 437.89 441.875 C 437.89 441.875 450.641 440.322 449.84 443.004 C 449.039 445.686 437.89 441.875 437.89 441.875 Z M 371.122 284.773 C 371.196 284.983 379.52 286.111 380.649 288.793 C 380.649 288.793 372.466 284.983 371.196 284.983 M 382.838 306.581 C 382.838 306.581 375.92 308.769 376.408 312.086 C 376.897 315.404 375.71 310.538 382.838 306.581 Z M 379.613 323.376 C 379.613 323.376 382.134 319.918 384.533 320.553 C 386.931 321.188 379.613 323.376 379.613 323.376 Z M 419.121 193.089 C 418.877 193.324 418.605 193.528 418.31 193.695 C 416.302 194.858 415.765 196.626 414.802 198.712 C 413.923 200.603 412.951 202.621 411.168 203.676 C 408.872 205.058 405.843 204.55 403.454 205.762 C 401.288 206.897 400.025 209.23 400.259 211.663 C 400.414 212.581 400.643 213.484 400.943 214.365 C 401.482 216.271 401.727 218.248 401.671 220.227 C 401.678 220.287 401.678 220.348 401.671 220.408 C 390.438 214.804 389.484 199.141 399.954 192.215 C 405.86 188.309 413.612 188.66 419.141 193.084 L 419.121 193.089 Z" opacity=".1"/>
  <path d="M 418.696 188.184 C 416.903 184.418 413.009 182.039 409.003 180.856 C 405.945 179.972 402.628 179.684 399.594 180.656 C 397.865 181.208 396.287 182.122 394.67 182.962 C 391.646 184.491 388.319 185.698 386.047 188.209 C 385.52 188.79 385.031 189.543 385.187 190.314 C 385.305 190.891 385.754 191.331 386.042 191.844 C 386.692 192.987 386.531 194.428 386.086 195.674 C 385.642 196.919 384.992 198.082 384.679 199.362 C 384.367 200.642 384.489 202.142 385.437 203.055 C 385.894 203.418 386.371 203.757 386.863 204.072 C 387.381 204.522 387.836 205.039 388.216 205.61 L 390.908 209.289 C 392.174 210.922 393.302 212.657 394.279 214.477 C 394.953 215.811 395.471 217.238 396.365 218.43 C 397.259 219.622 398.661 220.579 400.146 220.447 C 400.379 220.455 400.601 220.349 400.742 220.164 C 400.801 220.047 400.828 219.918 400.82 219.788 C 400.881 217.808 400.636 215.83 400.093 213.925 C 399.793 213.045 399.564 212.141 399.409 211.224 C 399.176 208.79 400.439 206.458 402.604 205.322 C 404.997 204.116 408.026 204.624 410.322 203.241 C 412.106 202.161 413.078 200.163 413.957 198.273 C 414.934 196.206 415.457 194.418 417.465 193.255 C 419.473 192.093 419.688 190.163 418.696 188.184 Z" fill="#585268"/>
  <path d="M 411.392 454.67 C 411.392 454.67 413.874 457.846 413.239 459.643 C 412.604 461.441 411.392 454.67 411.392 454.67 Z M 445.135 462.609 C 445.135 462.609 445.687 458.349 447.91 458.31 C 450.133 458.271 450.241 458.08 451.936 458.73 C 453.631 459.38 455.219 460.396 454.716 460.552 C 454.212 460.708 451.784 458.109 449.342 459.433 C 447.79 460.277 446.372 461.347 445.135 462.609 Z M 403.952 236.613 L 410.909 231.727 C 410.909 231.727 400.693 225.689 399.477 226.539 C 398.261 227.389 397.425 235.01 397.425 235.01 L 403.952 236.613 Z" opacity=".1"/>
  <path d="M 403.923 236.295 L 410.909 231.293 C 410.909 231.293 400.693 225.259 399.477 226.104 C 398.261 226.95 397.425 235.001 397.425 235.001 L 403.923 236.295 Z" fill="#e1e7ef"/>
  <path d="M 403.923 236.295 L 410.909 231.293 C 410.909 231.293 400.693 225.259 399.477 226.104 C 398.261 226.95 397.425 235.001 397.425 235.001 L 403.923 236.295 Z" opacity=".03"/>
  <path d="M 400.63 226.163 L 400.42 226.056 C 399.785 225.732 399.019 225.812 398.466 226.261 L 377.517 243.257 C 377.517 243.257 372.964 249.554 373.609 260.424 L 385.959 277.928 C 385.959 277.928 387.371 271.997 389.066 273.126 C 389.066 273.126 391.465 303.474 389.066 307.851 C 386.668 312.228 385.608 328.599 385.608 328.599 L 393.722 329.517 C 393.722 329.517 394.567 318.437 396.473 314.485 C 398.378 310.533 399.404 296.952 399.404 296.952 C 399.404 296.952 401.118 277.22 400.835 268.744 C 400.552 260.268 398.085 242.07 398.085 242.07 C 398.085 242.07 398.774 231.4 400.63 226.163 Z" fill="#67647e"/>
  <path d="M 421.495 233.516 L 412.794 230.291 C 412.794 230.291 423.879 218.156 425.257 224.888 L 421.495 233.516 Z" opacity=".1"/>
  <path d="M 421.495 233.081 L 412.794 229.861 C 412.794 229.861 423.879 217.721 425.257 224.453 L 421.495 233.081 Z" fill="#e1e7ef"/>
  <path d="M 421.495 233.081 L 412.794 229.861 C 412.794 229.861 423.879 217.721 425.257 224.453 L 421.495 233.081 Z" opacity=".03"/>
  <path d="M 421.217 222.768 C 421.341 222.745 421.468 222.772 421.573 222.841 L 421.217 222.768 Z" opacity=".1"/>
  <path d="M 422.062 221.918 L 445.16 226.901 C 445.16 226.901 451.511 228.313 456.098 244.258 C 460.685 260.204 449.816 279.75 449.816 279.75 L 447.417 277.713 L 448.619 324.295 C 448.619 324.295 437.959 328.316 434.573 324.783 C 431.188 321.251 431.535 304.754 431.535 304.754 C 431.535 304.754 428.291 274.254 426.239 269.232 C 424.187 264.21 425.262 228.083 425.262 228.083 C 425.262 228.083 423.352 221.639 422.062 221.918 Z" fill="#67647e"/>
  <path d="M 443.181 251.601 C 442.854 251.904 442.478 265.998 443.89 276.726 C 444.756 283.26 446.093 289.722 447.891 296.063 L 445.795 253.072 C 445.795 253.072 444.168 250.668 443.181 251.601 Z M 440.358 239.461 C 440.924 239.813 443.396 245.67 442.263 248.074 C 441.129 250.477 440.358 239.461 440.358 239.461 Z M 418.559 188.184 C 417.428 185.951 415.662 184.102 413.483 182.869 C 415.101 184.023 416.408 185.558 417.289 187.339 C 418.266 189.318 417.992 191.301 416.053 192.425 C 414.113 193.549 413.508 195.356 412.55 197.442 C 411.671 199.333 410.694 201.35 408.911 202.406 C 406.614 203.793 403.59 203.285 401.197 204.487 C 399.031 205.624 397.769 207.958 398.002 210.393 C 398.155 211.311 398.383 212.215 398.686 213.095 C 399.228 215 399.472 216.977 399.409 218.957 C 399.417 219.087 399.392 219.216 399.335 219.333 C 399.194 219.519 398.972 219.625 398.739 219.617 C 398.141 219.664 397.542 219.552 397 219.294 C 397.798 220.084 398.888 220.507 400.01 220.462 C 400.242 220.47 400.465 220.364 400.606 220.179 C 400.662 220.061 400.689 219.932 400.684 219.802 C 400.742 217.823 400.497 215.845 399.956 213.94 C 399.654 213.06 399.425 212.156 399.272 211.238 C 399.04 208.805 400.302 206.473 402.467 205.337 C 404.861 204.13 407.885 204.638 410.181 203.256 C 411.964 202.176 412.941 200.178 413.82 198.287 C 414.797 196.221 415.315 194.433 417.323 193.27 C 419.331 192.107 419.546 190.163 418.559 188.184 Z" opacity=".1"/>
</svg>